<svg width="20" height="21" viewBox="0 0 20 21" fill="none" xmlns="http://www.w3.org/2000/svg">
<path d="M10 18.5C14.4216 18.5 18 14.922 18 10.5C18 6.07847 14.422 2.5 10 2.5C5.57841 2.5 2 6.078 2 10.5C2 14.9215 5.578 18.5 10 18.5ZM9.17847 7.32434C9.17847 7.07159 9.54703 6.81891 9.99984 6.81891C10.4737 6.81891 10.8107 7.07159 10.8107 7.32434L10.8107 11.3364C10.8107 11.6313 10.4737 11.8314 9.99984 11.8314C9.54703 11.8314 9.17847 11.6313 9.17847 11.3364L9.17847 7.32434ZM9.99981 12.8001C10.4842 12.8001 10.8633 13.1582 10.8633 13.5583C10.8633 13.9585 10.4842 14.306 9.99981 14.306C9.52594 14.306 9.14681 13.9585 9.14681 13.5583C9.14681 13.1582 9.52597 12.8001 9.99981 12.8001Z" fill="#EA3A40"/>
</svg>
