<svg width="21" height="21" viewBox="0 0 21 21" fill="#FFE5F0" fill-opacity="0.4" xmlns="http://www.w3.org/2000/svg">
<g clip-path="url(#clip0_370_1917)">
<path d="M20.5197 10.4799C20.4908 10.4166 19.8064 8.89707 18.2947 7.38535C16.2721 5.36582 13.7228 4.29785 10.9103 4.29785C8.09784 4.29785 5.54862 5.36582 3.52831 7.38535C2.01659 8.89707 1.33222 10.4166 1.30097 10.4799C1.24804 10.5999 1.2207 10.7296 1.2207 10.8607C1.2207 10.9919 1.24804 11.1216 1.30097 11.2416C1.32987 11.3057 2.01425 12.8244 3.52675 14.3361C5.54862 16.3557 8.09784 17.4229 10.9103 17.4229C13.7228 17.4229 16.2721 16.3557 18.2916 14.3361C19.8041 12.8244 20.4885 11.3057 20.5174 11.2416C20.5707 11.1218 20.5984 10.9921 20.5988 10.861C20.5992 10.7298 20.5723 10.6 20.5197 10.4799ZM16.9213 13.058C15.2439 14.7096 13.2221 15.5479 10.9103 15.5479C8.59862 15.5479 6.57675 14.7096 4.90175 13.0572C4.24264 12.4051 3.67568 11.6659 3.21659 10.8604C3.67582 10.0551 4.24276 9.31624 4.90175 8.66426C6.57753 7.01113 8.59862 6.17285 10.9103 6.17285C13.2221 6.17285 15.2432 7.01113 16.9189 8.66426C17.578 9.31618 18.1449 10.055 18.6041 10.8604C18.1449 11.6659 17.578 12.405 16.9189 13.0572L16.9213 13.058ZM10.9103 7.42285C10.2305 7.42285 9.56586 7.62446 9.00057 8.00217C8.43527 8.37989 7.99468 8.91676 7.73451 9.54488C7.47433 10.173 7.40626 10.8642 7.53889 11.531C7.67153 12.1978 7.99892 12.8103 8.47966 13.291C8.9604 13.7718 9.57291 14.0992 10.2397 14.2318C10.9065 14.3644 11.5977 14.2964 12.2258 14.0362C12.8539 13.776 13.3908 13.3354 13.7685 12.7701C14.1462 12.2048 14.3478 11.5402 14.3478 10.8604C14.3468 9.94899 13.9843 9.07525 13.3399 8.43081C12.6954 7.78638 11.8217 7.42389 10.9103 7.42285ZM10.9103 12.4229C10.6013 12.4229 10.2992 12.3312 10.0423 12.1595C9.78531 11.9878 9.58504 11.7438 9.46678 11.4583C9.34852 11.1728 9.31757 10.8586 9.37786 10.5555C9.43815 10.2524 9.58697 9.97402 9.80549 9.7555C10.024 9.53698 10.3024 9.38816 10.6055 9.32787C10.9086 9.26758 11.2228 9.29853 11.5083 9.41679C11.7938 9.53505 12.0378 9.73532 12.2095 9.99227C12.3812 10.2492 12.4728 10.5513 12.4728 10.8604C12.4728 11.2748 12.3082 11.6722 12.0152 11.9652C11.7222 12.2582 11.3247 12.4229 10.9103 12.4229Z" fill="#FFE5F0" fill-opacity="0.4"/>
</g>
<defs>
<clipPath id="clip0_370_1917">
<rect width="20" height="20" fill="white" transform="translate(0.910156 0.860352)"/>
</clipPath>
</defs>
</svg>
