<svg width="95" height="95" viewBox="0 0 95 95" fill="none" xmlns="http://www.w3.org/2000/svg">
<g filter="url(#filter0_d_2021_3952)">
<path fill-rule="evenodd" clip-rule="evenodd" d="M33.8281 6.01978C39.8633 6.01978 40 6.01978 40.6445 6.44946C40.9961 6.68384 41.4648 7.13306 41.6602 7.46509C41.8945 7.85571 42.0117 8.42212 42.0117 9.12524C42.0117 9.82837 41.8945 10.3948 41.6602 10.7854C41.4648 11.0979 40.9961 11.5667 40.6445 11.7815C40.0195 12.1917 39.6875 12.2112 34.1211 12.3088C29.6094 12.387 27.9688 12.4846 26.9922 12.7385C26.2891 12.9143 25.0977 13.344 24.3555 13.7151C23.5938 14.0667 22.4219 14.8088 21.7188 15.3362C21.0156 15.8635 19.9805 16.9182 19.4141 17.6409C18.8281 18.3831 18.0664 19.594 17.7148 20.3557C17.3438 21.0979 16.9141 22.2893 16.7188 22.9924C16.4844 23.9885 16.3867 25.5706 16.3086 30.1213C16.2305 35.2581 16.1719 36.0588 15.8594 36.5667C15.6836 36.8792 15.2148 37.3479 14.8633 37.5823C14.375 37.8948 13.9062 38.012 13.125 38.012C12.3438 38.012 11.875 37.8948 11.3867 37.5823C11.0352 37.3479 10.5664 36.8792 10.3711 36.5667C10.0195 36.0198 10 35.5706 10.0586 29.3401C10.1172 23.1682 10.1563 22.5823 10.5664 21.137C10.8008 20.2776 11.3086 18.8713 11.6797 18.012C12.0508 17.1526 12.7734 15.8245 13.2812 15.0823C13.7891 14.3206 14.8047 13.0706 15.5664 12.2698C16.3086 11.4885 17.5 10.4143 18.2031 9.90649C18.9062 9.39868 19.8633 8.75415 20.3516 8.48071C20.8398 8.20728 21.9336 7.69946 22.793 7.3479C23.6523 7.01587 25.0977 6.56665 26.0156 6.37134C27.4023 6.07837 28.6719 6.01978 33.8281 6.01978ZM61.0742 6.00024C66.2109 6.00024 67.4023 6.05884 68.8867 6.37134C69.8438 6.56665 71.3477 7.01587 72.207 7.36743C73.0664 7.69946 74.2969 8.30493 74.9414 8.67603C75.5859 9.04712 76.4648 9.63306 76.8945 9.96509C77.3242 10.2971 78.1836 11.0393 78.8086 11.6448C79.4531 12.2502 80.332 13.2268 80.8008 13.8127C81.25 14.3987 81.9336 15.4143 82.3242 16.0588C82.6953 16.7034 83.3008 17.9338 83.6328 18.7932C83.9844 19.6526 84.4336 21.137 84.6289 22.1135C84.9414 23.5979 85 24.7893 85 29.926C84.9805 35.4534 84.9609 36.0393 84.6289 36.5667C84.4336 36.8792 83.9648 37.3479 83.6133 37.5823C83.125 37.8948 82.6562 38.012 81.875 38.012C81.0938 38.012 80.625 37.8948 80.1367 37.5823C79.7852 37.3479 79.3164 36.8792 79.1406 36.5667C78.8281 36.0588 78.7695 35.2581 78.6914 30.1213C78.6133 25.6096 78.5156 23.969 78.2617 22.9924C78.0859 22.2893 77.6562 21.0979 77.2852 20.3557C76.9336 19.594 76.1914 18.4221 75.6641 17.719C75.1367 17.0159 74.082 15.9807 73.3594 15.4143C72.6172 14.8284 71.3867 14.0667 70.6445 13.7151C69.8828 13.344 68.7109 12.9143 68.0078 12.7385C67.0312 12.4846 65.3906 12.387 60.8789 12.3088C55.3125 12.2112 54.9805 12.1917 54.3555 11.7815C54.0039 11.5667 53.5352 11.0979 53.3398 10.7854C53.1055 10.3948 52.9883 9.82837 52.9883 9.12524C52.9883 8.42212 53.1055 7.85571 53.3398 7.46509C53.5352 7.13306 54.0039 6.68384 54.3555 6.44946C55 6.01978 55.1367 6.00024 61.0742 6.00024ZM13.125 48.969C13.9062 48.9885 14.375 49.1057 14.8633 49.4182C15.2148 49.6526 15.6836 50.1018 15.8594 50.4338C16.1719 50.9417 16.2305 51.7424 16.3086 56.8792C16.3867 61.4299 16.4844 63.012 16.7188 64.0081C16.9141 64.7112 17.3438 65.8831 17.7148 66.6448C18.0664 67.387 18.7891 68.5588 19.3164 69.2424C19.8242 69.9065 20.8594 70.9612 21.6211 71.5471C22.3633 72.1526 23.5938 72.9338 24.3555 73.3049C25.0977 73.6565 26.2891 74.0862 26.9922 74.262C27.9688 74.5159 29.6094 74.6135 34.1211 74.6917C39.6875 74.7893 40.0195 74.8088 40.6445 75.219C40.9961 75.4338 41.4648 75.8831 41.6602 76.2151C41.8945 76.6057 42.0117 77.1721 42.0117 77.8752C42.0117 78.5784 41.8945 79.1448 41.6602 79.5354C41.4648 79.8479 40.9961 80.3167 40.6445 80.551C40 80.9807 39.8438 80.9807 33.9258 81.0002C28.7891 81.0002 27.5977 80.9417 26.1133 80.6292C25.1367 80.4338 23.6523 79.9846 22.793 79.6331C21.9336 79.301 20.7031 78.6956 20.0586 78.3245C19.4141 77.9338 18.3984 77.2502 17.8125 76.801C17.2266 76.3323 16.25 75.4534 15.6445 74.8088C15.0391 74.1838 14.2969 73.3245 13.9648 72.8948C13.6328 72.4651 13.0469 71.5862 12.6758 70.9417C12.3047 70.2971 11.6992 69.0667 11.3672 68.2073C11.0156 67.3479 10.5664 65.844 10.3711 64.887C10.0586 63.4026 10 62.2112 10 57.0745C10.0195 51.5276 10.0391 50.9612 10.3711 50.4338C10.5664 50.1018 11.0352 49.6526 11.3867 49.4182C11.875 49.0862 12.3438 48.969 13.125 48.969ZM81.875 48.969C82.6562 48.9885 83.125 49.1057 83.6133 49.4182C83.9648 49.6526 84.4336 50.1018 84.6289 50.4338C84.9609 50.9612 84.9805 51.5471 85 57.0745C85 62.2112 84.9414 63.4026 84.6289 64.887C84.4336 65.844 83.9844 67.3479 83.6328 68.2073C83.3008 69.0667 82.6953 70.2971 82.3242 70.9417C81.9531 71.5862 81.3672 72.4651 81.0352 72.8948C80.7031 73.3245 79.9609 74.1838 79.3555 74.8088C78.75 75.4534 77.7734 76.3323 77.1875 76.801C76.6016 77.2502 75.5859 77.9338 74.9414 78.3245C74.2969 78.6956 73.0664 79.301 72.207 79.6331C71.3477 79.9846 69.8438 80.4338 68.8867 80.6292C67.4023 80.9417 66.2109 81.0002 61.0742 81.0002C55.1562 80.9807 55 80.9807 54.3555 80.551C54.0039 80.3167 53.5352 79.8479 53.3398 79.5354C53.1055 79.1448 52.9883 78.5784 52.9883 77.8752C52.9883 77.1721 53.1055 76.6057 53.3398 76.2151C53.5352 75.8831 54.0039 75.4338 54.3555 75.219C54.9805 74.8088 55.3125 74.7893 60.8789 74.6917C65.3906 74.6135 67.0312 74.5159 68.0078 74.262C68.7109 74.0862 69.8828 73.6565 70.6445 73.3049C71.3867 72.9338 72.5977 72.1721 73.3203 71.6057C74.043 71.0198 75.0781 69.9846 75.6445 69.2815C76.1914 68.5784 76.9336 67.387 77.3047 66.6448C77.6562 65.8831 78.0859 64.7112 78.2617 64.0081C78.5156 63.0315 78.6133 61.3909 78.6914 56.8792C78.7695 51.7424 78.8281 50.9417 79.1406 50.4338C79.3359 50.1018 79.7852 49.6526 80.1367 49.4182C80.625 49.0862 81.0938 48.969 81.875 48.969ZM39.5898 23.8713C40.7617 23.9104 42.2656 24.0667 42.9102 24.2424C43.5547 24.4182 44.8242 24.926 47.4023 26.2151L48.5742 25.5901C49.2188 25.2385 50.4492 24.7112 51.3086 24.4182C52.6758 23.969 53.2031 23.9104 55.5078 23.8909C57.4414 23.8713 58.4766 23.969 59.4141 24.2034C60.1172 24.3987 61.5234 24.9651 62.5195 25.4729C63.8477 26.137 64.7852 26.801 65.8203 27.7776C66.6211 28.5198 67.6562 29.7112 68.1055 30.4143C68.5742 31.1174 69.1016 32.0354 69.2773 32.4651C69.4727 32.8948 69.7852 33.7737 70 34.4182C70.2539 35.1799 70.4102 36.3909 70.4883 37.9338C70.5859 39.7502 70.5273 40.6292 70.2539 41.8401C70.0781 42.6995 69.6094 44.0667 69.2383 44.8674C68.8672 45.6682 68.1836 46.8596 67.7148 47.5042C67.2461 48.1487 62.9297 52.6018 58.1055 57.387C49.7461 65.7268 49.3164 66.1174 48.3789 66.3518C47.5586 66.5471 47.2266 66.5276 46.3281 66.2737C45.293 65.9807 45 65.7073 36.1523 56.8401C28.6914 49.3401 26.8945 47.4456 26.25 46.3323C25.8008 45.5706 25.2344 44.301 24.9609 43.5002C24.6875 42.6995 24.375 41.2932 24.2773 40.3752C24.1211 39.2034 24.1211 38.2268 24.2773 37.0549C24.3945 36.137 24.6875 34.7307 24.9609 33.9299C25.2148 33.1292 25.7422 31.8987 26.1523 31.1956C26.5625 30.4729 27.6562 29.1643 28.6523 28.1682C30 26.8206 30.7812 26.2151 31.9727 25.5901C32.832 25.1604 34.0234 24.6526 34.6094 24.4573C35.1953 24.262 36.0742 24.0471 36.5625 23.9495C37.0508 23.8713 38.3984 23.8323 39.5898 23.8713ZM34.2578 31.7424C33.6914 32.1135 32.8906 32.8752 32.4609 33.4221C32.0508 33.969 31.5039 34.8479 31.2695 35.3948C30.9375 36.1174 30.8008 36.8596 30.7422 38.2268C30.6641 39.6526 30.7227 40.3362 30.9961 41.1565C31.1914 41.7424 31.5625 42.6213 31.8359 43.1096C32.1289 43.6174 35.4688 47.1526 39.8242 51.5081L47.2852 59.0276C58.8281 47.5237 62.4219 43.8323 62.7344 43.4026C63.0273 42.9729 63.457 42.0745 63.6914 41.3909C63.9648 40.5901 64.1016 39.6917 64.1016 38.6565C64.1016 37.6995 63.9844 36.762 63.75 36.0784C63.5352 35.4924 63.1641 34.6526 62.8906 34.2229C62.6172 33.7932 62.0117 33.0706 61.543 32.6018C61.0742 32.1331 60.0586 31.4495 59.3164 31.0784C58.1836 30.512 57.6562 30.3752 56.2891 30.2776C54.9219 30.1799 54.375 30.2385 53.2227 30.5901C52.4414 30.8049 51.7969 31.0588 51.7969 31.137C51.7969 31.2346 52.5977 32.0745 53.5547 33.051C54.9023 34.3792 55.3711 35.0042 55.5273 35.5901C55.6445 36.0198 55.6641 36.7229 55.6055 37.1526C55.4883 37.8362 55.0586 38.344 52.207 41.176C49.4531 43.9495 48.8477 44.4377 48.2422 44.5549C47.832 44.6135 47.168 44.6135 46.7773 44.5549C46.1523 44.4377 45.5469 43.9495 42.8516 41.2737C40.2539 38.7151 39.6289 37.9924 39.4727 37.3479C39.3555 36.9182 39.3359 36.2151 39.3945 35.7854C39.5117 35.1409 39.8633 34.6721 41.3672 33.1487L43.2031 31.2932C41.3867 30.4534 40.7422 30.3362 39.3945 30.2776C37.9688 30.219 37.4023 30.2971 36.4648 30.6292C35.8203 30.844 34.8242 31.3518 34.2578 31.7424Z" fill="url(#paint0_linear_2021_3952)"/>
</g>
<defs>
<filter id="filter0_d_2021_3952" x="0" y="0.000244141" width="95" height="95" filterUnits="userSpaceOnUse" color-interpolation-filters="sRGB">
<feFlood flood-opacity="0" result="BackgroundImageFix"/>
<feColorMatrix in="SourceAlpha" type="matrix" values="0 0 0 0 0 0 0 0 0 0 0 0 0 0 0 0 0 0 127 0" result="hardAlpha"/>
<feOffset dy="4"/>
<feGaussianBlur stdDeviation="5"/>
<feComposite in2="hardAlpha" operator="out"/>
<feColorMatrix type="matrix" values="0 0 0 0 0 0 0 0 0 0 0 0 0 0 0 0 0 0 0.25 0"/>
<feBlend mode="normal" in2="BackgroundImageFix" result="effect1_dropShadow_2021_3952"/>
<feBlend mode="normal" in="SourceGraphic" in2="effect1_dropShadow_2021_3952" result="shape"/>
</filter>
<linearGradient id="paint0_linear_2021_3952" x1="47.5" y1="6.00024" x2="47.5" y2="81.0002" gradientUnits="userSpaceOnUse">
<stop stop-color="#9747FF"/>
<stop offset="1" stop-color="#686DFF"/>
</linearGradient>
</defs>
</svg>
