<svg width="92" height="84" viewBox="0 0 92 84" fill="none" xmlns="http://www.w3.org/2000/svg">
<g filter="url(#filter0_d_2021_3960)">
<path fill-rule="evenodd" clip-rule="evenodd" d="M45.911 6.01841C69.1767 6.00033 72.7409 6.03649 73.6722 6.27152C74.2633 6.41615 75.3558 6.85005 76.0901 7.21163C77.0215 7.68169 77.8095 8.2783 78.6871 9.16417C79.5648 10.05 80.1558 10.8455 80.6215 11.7856C80.9797 12.5269 81.4095 13.6297 81.5528 14.2263C81.7857 15.1664 81.8215 17.8241 81.8215 33.119C81.8215 48.4862 81.7857 51.0715 81.5528 52.0116C81.3916 52.6082 81.0334 53.5845 80.7468 54.1811C80.4603 54.7777 79.8334 55.754 79.3677 56.3325C78.8842 56.9472 77.917 57.8331 77.1648 58.3393C76.4304 58.8455 75.3021 59.4602 74.6573 59.6953C73.511 60.1292 73.3857 60.1292 65.2364 60.2376C58.2513 60.3099 56.926 60.3642 56.6573 60.5992C56.4961 60.7438 55.1886 62.4433 53.7737 64.3597C52.0722 66.6376 50.908 68.0478 50.3528 68.4636C49.8692 68.8071 49.0454 69.2591 48.508 69.476C47.7737 69.7653 47.1289 69.8738 46.0006 69.8738C44.8722 69.8738 44.2274 69.7653 43.4931 69.476C42.9558 69.2591 42.1498 68.8252 41.7021 68.4998C41.2006 68.1201 39.8931 66.5472 38.2812 64.3777C36.8304 62.4433 35.5051 60.7438 35.3439 60.5992C35.0752 60.3642 33.7498 60.3099 26.7648 60.2376C18.6155 60.1292 18.4901 60.1292 17.3439 59.6953C16.6991 59.4602 15.5707 58.8455 14.8364 58.3393C14.0842 57.8331 13.117 56.9472 12.6334 56.3325C12.1677 55.754 11.5409 54.7777 11.2543 54.1811C10.9677 53.5845 10.6095 52.6082 10.4483 52.0116C10.2155 51.0715 10.1797 48.4862 10.1797 33.119C10.1797 17.8241 10.2155 15.1664 10.4483 14.2263C10.5916 13.6297 11.0215 12.5269 11.3797 11.7856C11.8454 10.8455 12.4364 10.05 13.314 9.16417C14.1737 8.29638 14.9976 7.68169 15.911 7.21163C16.6454 6.83197 17.7021 6.41615 18.2394 6.27152C19.0454 6.07265 24.1677 6.03649 45.911 6.01841ZM35.4334 21.9099C35.1827 22.0726 34.1797 23.1936 33.1767 24.3687C31.6364 26.2128 31.3498 26.6647 31.1528 27.5145C30.9976 28.1774 30.9439 29.4128 30.9916 31.2207C31.0454 33.4263 31.117 34.0591 31.4036 34.5653C31.5827 34.9088 34.4483 38.0003 37.7618 41.4354C41.917 45.7382 44.0304 47.7992 44.5677 48.0885C45.0155 48.3054 45.6603 48.4862 46.0006 48.4862C46.3409 48.4862 46.9498 48.3235 47.3439 48.1427C47.7916 47.9258 49.1707 46.6602 51.0155 44.7619C52.6454 43.0806 55.4036 40.2421 57.123 38.4523C58.8603 36.6625 60.4185 34.9088 60.6155 34.5653C60.8842 34.041 60.9558 33.4263 61.0095 31.1303C61.0812 28.9065 61.0275 28.1291 60.7946 27.3337C60.5618 26.5382 60.1498 25.9235 58.6633 24.1698C57.4633 22.7597 56.5677 21.8738 56.12 21.6388C55.5827 21.3856 54.92 21.2772 53.523 21.2229C52.3767 21.1687 51.2663 21.241 50.6573 21.3676C49.7797 21.5845 49.4931 21.7834 48.0603 23.1936C46.8961 24.3506 46.323 24.7845 46.0006 24.7845C45.6782 24.7845 45.1051 24.3506 43.9409 23.2116C42.6155 21.8919 42.1857 21.5845 41.4872 21.4037C41.0036 21.2772 39.8394 21.1868 38.8901 21.2049C37.923 21.2049 36.8483 21.2952 36.508 21.4037C36.1677 21.4941 35.6842 21.7291 35.4334 21.9099Z" fill="url(#paint0_linear_2021_3960)"/>
</g>
<defs>
<filter id="filter0_d_2021_3960" x="0.000976562" y="0.000244141" width="92" height="84" filterUnits="userSpaceOnUse" color-interpolation-filters="sRGB">
<feFlood flood-opacity="0" result="BackgroundImageFix"/>
<feColorMatrix in="SourceAlpha" type="matrix" values="0 0 0 0 0 0 0 0 0 0 0 0 0 0 0 0 0 0 127 0" result="hardAlpha"/>
<feOffset dy="4"/>
<feGaussianBlur stdDeviation="5"/>
<feComposite in2="hardAlpha" operator="out"/>
<feColorMatrix type="matrix" values="0 0 0 0 0 0 0 0 0 0 0 0 0 0 0 0 0 0 0.25 0"/>
<feBlend mode="normal" in2="BackgroundImageFix" result="effect1_dropShadow_2021_3960"/>
<feBlend mode="normal" in="SourceGraphic" in2="effect1_dropShadow_2021_3960" result="shape"/>
</filter>
<linearGradient id="paint0_linear_2021_3960" x1="46.0006" y1="6.0144" x2="46.0006" y2="69.8738" gradientUnits="userSpaceOnUse">
<stop stop-color="#2EB978"/>
<stop offset="1" stop-color="#8049F3"/>
</linearGradient>
</defs>
</svg>
