<svg width="98" height="93" viewBox="0 0 98 93" fill="none" xmlns="http://www.w3.org/2000/svg">
<g filter="url(#filter0_d_2021_3968)">
<path d="M40.7729 6.77472C41.1114 6.61401 41.4267 6.37586 41.4731 6.24227C41.5331 6.07188 42.1018 6.00024 43.4016 6.00024C44.5003 6.00024 45.2431 6.07769 45.2431 6.19386C45.2431 6.30035 45.5042 6.51721 45.8234 6.67791C46.1426 6.83861 46.8834 7.40398 47.4676 7.93643C48.0537 8.46888 48.6185 8.90452 48.7249 8.90452C48.8313 8.90452 49.398 8.46888 49.9822 7.93643C50.5663 7.40398 51.2414 6.86765 51.4813 6.74567C51.7211 6.6237 51.9823 6.40684 52.0616 6.26163C52.168 6.06995 52.6999 6.00024 54.0442 6.00024C55.3383 6.00024 55.9089 6.07188 55.9708 6.24227C56.0211 6.37586 56.3383 6.61401 56.6768 6.77472C57.0134 6.93542 57.7446 7.58791 58.2978 8.22686C58.8529 8.8658 59.4506 9.67125 59.6247 10.0178C59.8704 10.5019 59.9439 11.2047 59.9439 13.0673C59.9439 14.9067 59.8685 15.6386 59.6305 16.1168C59.4603 16.4634 57.4796 18.6048 55.23 20.8759C52.9823 23.1471 50.8159 25.1723 50.4174 25.3776C49.988 25.5983 49.2994 25.7493 48.7249 25.7493C48.1543 25.7493 47.4598 25.5983 47.0324 25.3795C46.6339 25.1743 44.4694 23.149 42.2217 20.8779C39.976 18.6048 37.9952 16.4634 37.8212 16.1168C37.5794 15.6347 37.5059 14.9202 37.5059 13.0673C37.5059 11.2047 37.5794 10.5019 37.825 10.0178C37.9991 9.67125 38.5968 8.8658 39.152 8.22686C39.7052 7.58791 40.4363 6.93542 40.7729 6.77472Z" fill="url(#paint0_linear_2021_3968)"/>
<path d="M61.0078 28.9382C65.9016 27.1569 70.2538 25.5828 70.6793 25.4376C71.1049 25.2924 71.8225 25.2169 72.2751 25.2691C72.7278 25.3195 73.4454 25.5363 73.8709 25.7493C74.2965 25.9623 74.8381 26.4192 75.0722 26.7658C75.3081 27.1124 76.4861 30.096 77.6893 33.3972C78.8924 36.6984 80.0163 40.0964 80.1884 40.9484C80.407 42.0346 80.4669 43.0162 80.3915 44.2399C80.3315 45.1983 80.0917 46.5923 79.8596 47.3378C79.6255 48.0832 79.1942 49.1733 78.9002 49.758C78.6042 50.3427 77.9407 51.3844 77.4223 52.0698C76.9059 52.7552 75.9426 53.7581 74.0837 55.2761L74.7588 57.1155C75.1321 58.1281 76.2753 61.2647 77.3005 64.0858C78.3257 66.9068 79.1922 69.2612 79.2271 69.3134C79.2599 69.3657 80.3548 69.0269 81.6566 68.5583C83.5754 67.8671 84.1731 67.7296 84.7998 67.8303C85.2254 67.8981 85.8347 68.1575 86.1538 68.4073C86.473 68.6551 86.8985 69.2011 87.0978 69.6194C87.3628 70.1712 87.4324 70.6165 87.3512 71.2496C87.2912 71.7298 87.0842 72.3281 86.8908 72.5817C86.6974 72.8354 86.324 73.2032 86.0571 73.4007C85.7921 73.5982 82.3316 74.9381 78.3682 76.3766C73.4512 78.1637 70.9018 78.9963 70.3408 79.0002C69.7451 79.004 69.306 78.855 68.745 78.458C68.2672 78.1211 67.8417 77.6003 67.6328 77.0988C67.4471 76.6496 67.2962 76.0882 67.2981 75.8481C67.3001 75.608 67.4587 75.0639 67.6483 74.638C67.8398 74.212 68.2518 73.6795 68.5632 73.4549C68.8765 73.2284 70.07 72.7056 71.2171 72.2932C72.3641 71.8789 73.3023 71.4955 73.3003 71.4433C73.2984 71.391 72.1533 68.2098 68.2169 57.4059L66.3542 57.3846C65.0814 57.3711 63.9982 57.2278 62.9421 56.9354C62.091 56.6992 60.6983 56.1455 59.8472 55.7021C58.6982 55.1057 57.8761 54.4745 56.6556 53.2489C55.7503 52.3409 54.7309 51.1172 54.3866 50.5325C54.0423 49.9477 52.7154 46.6136 51.4368 43.1266C49.8023 38.6714 49.1137 36.5416 49.1156 35.9627C49.1175 35.5096 49.28 34.7913 49.4773 34.3653C49.6746 33.9394 50.0421 33.3992 50.2955 33.1668C50.5489 32.9326 51.0596 32.6131 51.4329 32.4582C51.8062 32.3033 56.1139 30.7176 61.0078 28.9382Z" fill="url(#paint1_linear_2021_3968)"/>
<path d="M22.1395 27.5403C22.4897 26.7871 22.8243 26.3979 23.4336 26.0417C24.0255 25.6951 24.54 25.5596 25.2712 25.5576C26.1068 25.5557 27.9986 26.1772 35.9099 29.0505C41.2022 30.9731 45.8755 32.737 46.2933 32.9713C46.7827 33.2462 47.214 33.707 47.5061 34.2685C47.7769 34.7913 47.9568 35.4689 47.9549 35.9627C47.9529 36.5203 47.2624 38.6695 45.8097 42.6425C44.6317 45.8643 43.3299 49.1539 42.916 49.9516C42.5021 50.7512 41.6606 51.9594 41.0436 52.639C40.4285 53.3167 39.3569 54.2461 38.6663 54.7011C37.9758 55.158 36.9312 55.7427 36.3451 56.0002C35.759 56.2597 34.8035 56.5869 34.2174 56.7282C33.6313 56.8696 32.2038 57.0361 28.929 57.2123L26.3505 64.231C24.9327 68.0917 23.8127 71.358 23.8611 71.4916C23.9114 71.6252 24.9346 72.1073 26.1339 72.5643C27.3351 73.0232 28.4531 73.5014 28.6176 73.6292C28.782 73.7589 29.0644 74.0823 29.2462 74.3475C29.457 74.6534 29.577 75.2033 29.577 75.8481C29.575 76.4076 29.4435 77.1259 29.2849 77.4454C29.1263 77.7649 28.7336 78.1579 28.4145 78.3167C28.0953 78.4755 27.8342 78.6942 27.8342 78.8007C27.8342 78.9072 27.3777 78.9905 26.8186 78.9866C26.1707 78.9827 25.7335 78.8801 25.6097 78.7059C25.5033 78.5548 22.3697 77.3292 18.6462 75.9836C14.9226 74.6379 11.6807 73.4143 11.4409 73.2632C11.201 73.1142 10.8006 72.665 10.5511 72.2661C10.2996 71.8673 10.0617 71.2574 10.0191 70.9127C9.97658 70.5681 10.0075 70.2854 10.0868 70.2835C10.1661 70.2815 10.406 69.933 10.6188 69.5071C10.8335 69.0772 11.2629 68.6029 11.5859 68.4422C11.9051 68.2834 12.5802 68.1517 13.085 68.1517C13.6556 68.1537 14.6982 68.4112 15.8414 68.8333C16.8511 69.2089 17.8318 69.5129 18.0175 69.5109C18.2032 69.509 18.387 69.3986 18.4257 69.265C18.4643 69.1314 19.5959 66.018 20.9383 62.3432C22.2807 58.6683 23.3814 55.5104 23.3833 55.3245C23.3833 55.1367 22.8572 54.5752 22.2034 54.066C21.5515 53.5606 20.625 52.6235 20.1433 51.9846C19.6617 51.3456 18.9305 50.1259 18.5166 49.2739C18.0639 48.3368 17.6558 47.1132 17.4875 46.176C17.3347 45.3241 17.2051 44.083 17.2012 43.417C17.1993 42.7509 17.3173 41.5757 17.4662 40.8031C17.6171 40.0306 18.623 36.9598 19.7042 33.9781C20.7836 30.9964 21.8803 28.0998 22.1395 27.5403Z" fill="url(#paint2_linear_2021_3968)"/>
</g>
<defs>
<filter id="filter0_d_2021_3968" x="0" y="0.000244141" width="97.3828" height="93" filterUnits="userSpaceOnUse" color-interpolation-filters="sRGB">
<feFlood flood-opacity="0" result="BackgroundImageFix"/>
<feColorMatrix in="SourceAlpha" type="matrix" values="0 0 0 0 0 0 0 0 0 0 0 0 0 0 0 0 0 0 127 0" result="hardAlpha"/>
<feOffset dy="4"/>
<feGaussianBlur stdDeviation="5"/>
<feComposite in2="hardAlpha" operator="out"/>
<feColorMatrix type="matrix" values="0 0 0 0 0 0 0 0 0 0 0 0 0 0 0 0 0 0 0.25 0"/>
<feBlend mode="normal" in2="BackgroundImageFix" result="effect1_dropShadow_2021_3968"/>
<feBlend mode="normal" in="SourceGraphic" in2="effect1_dropShadow_2021_3968" result="shape"/>
</filter>
<linearGradient id="paint0_linear_2021_3968" x1="62.4445" y1="6.00024" x2="62.4445" y2="79.0002" gradientUnits="userSpaceOnUse">
<stop offset="0.291329" stop-color="#B168FF"/>
<stop offset="1" stop-color="#BC00BC"/>
</linearGradient>
<linearGradient id="paint1_linear_2021_3968" x1="62.4445" y1="6.00024" x2="62.4445" y2="79.0002" gradientUnits="userSpaceOnUse">
<stop offset="0.291329" stop-color="#B168FF"/>
<stop offset="1" stop-color="#BC00BC"/>
</linearGradient>
<linearGradient id="paint2_linear_2021_3968" x1="28.9774" y1="25.5576" x2="28.9774" y2="78.9867" gradientUnits="userSpaceOnUse">
<stop stop-color="#686DFF"/>
<stop offset="1" stop-color="#E868FF"/>
</linearGradient>
</defs>
</svg>
