<svg width="48" height="49" viewBox="0 0 48 49" fill="none" xmlns="http://www.w3.org/2000/svg">
<path d="M25.4 0.749376C25.7381 0.642056 26.1832 0.54142 26.3789 0.530806C26.5888 0.522027 27.0498 0.574574 27.4019 0.634591C27.768 0.696442 28.2585 0.853557 28.5002 0.985645C28.7685 1.13555 29.1356 1.46381 29.4609 1.837C29.823 2.25816 30.0572 2.61236 30.2027 2.98385C30.3151 3.27908 30.4259 3.80442 30.4318 4.14341C30.4376 4.48241 30.3632 5.0485 30.268 5.3888C30.1649 5.73527 29.962 6.18394 29.8109 6.40186L29.5428 6.79891C40.3232 30.6927 47.0482 46.4024 47.1274 46.6213C47.1985 46.8465 47.2463 47.1405 47.2418 47.2839C47.2312 47.4192 47.1355 47.7091 47.0368 47.9122C46.9301 48.1215 46.7132 48.4028 46.553 48.526C46.3467 48.672 46.0751 48.7663 45.7563 48.7826C45.4454 48.7926 45.1094 48.7203 44.835 48.5624L44.4124 48.3277C40.8119 40.3982 36.2021 29.4606 36.1591 29.4046C36.1222 29.3567 34.4713 29.4306 32.4879 29.5693C30.5186 29.7099 28.691 29.8689 28.4391 29.9226C28.1732 29.9745 27.5796 30.1638 27.103 30.3396C26.353 30.6238 26.0943 30.7846 25.1512 31.4972C24.2704 32.1746 23.9746 32.4529 23.5648 32.9971C23.2923 33.372 22.7318 34.3501 22.3192 35.189C21.9146 36.0218 21.3362 37.0263 21.0459 37.4277C20.7495 37.8211 20.2632 38.3985 19.9638 38.7052C19.6563 39.018 19.1105 39.5014 18.7501 39.7785C18.3818 40.0618 17.7221 40.4801 17.2725 40.7241C16.831 40.9619 16.156 41.2775 15.7699 41.4217C15.3919 41.5598 14.7398 41.756 14.3168 41.8523C13.908 41.9505 13.0369 42.0607 12.4054 42.1012C11.7676 42.1336 10.595 42.1832 9.80154 42.1955C8.66894 42.2142 8.24241 42.1733 7.83449 41.9909C7.54839 41.8675 7.14362 41.6063 6.95362 41.409C6.69842 41.16 6.53801 40.9017 6.41894 40.5481C6.31889 40.2688 6.24544 39.8419 6.24876 39.5977C6.26009 39.3472 6.81484 37.3177 7.49043 35.0808C8.58286 31.4801 8.69473 31.0124 8.52001 30.9178C8.42036 30.8545 6.7488 29.9902 4.82131 28.9919C2.89381 27.9937 1.18293 27.0451 1.01566 26.8939C0.829939 26.7187 0.640661 26.4063 0.503719 26.0791C0.391367 25.7838 0.287183 25.3169 0.280067 25.0425C0.272952 24.7681 0.378677 24.2925 0.514411 23.9718C0.722947 23.4807 0.850508 23.3317 1.36302 22.9375C1.95562 22.4818 1.9938 22.4652 3.9399 22.0625C5.02778 21.8364 6.1637 21.5734 6.45555 21.4889C6.76156 21.4062 7.36442 21.1461 7.79799 20.9145C8.23956 20.6766 8.77108 20.3569 8.99531 20.1844C9.21153 20.0182 9.66499 19.5804 10.0002 19.2208C10.4032 18.7836 11.0332 17.8794 11.8124 16.6058C12.4727 15.5255 13.2372 14.3652 13.504 14.0327C13.7647 13.6923 14.3236 13.1098 14.7333 12.7311C15.1491 12.3604 15.8699 11.8061 16.341 11.5074C16.8061 11.2006 17.6091 10.7865 18.1116 10.5782C18.6301 10.3575 19.7452 10.0342 20.7222 9.82981C21.6488 9.62604 23.3813 9.26045 24.564 9.02511C25.7405 8.78177 26.7213 8.54905 26.741 8.50843C26.7626 8.45365 26.7313 8.36324 26.6821 8.29929C26.633 8.23534 26.2902 8.10457 25.9198 8.02057C25.5554 7.94457 25.0017 7.72167 24.7027 7.53179C24.2961 7.28479 24.0187 7.04014 23.6806 6.6005C23.4181 6.24264 23.1649 5.81401 23.079 5.5366C22.9974 5.28134 22.9191 4.78182 22.909 4.42068C22.8848 4.0577 22.9573 3.50577 23.0647 3.18145C23.1703 2.87128 23.417 2.3635 23.6137 2.07234C23.8103 1.78117 24.1474 1.40745 24.3777 1.243C24.594 1.07671 25.062 0.856696 25.4 0.749376Z" fill="url(#paint0_linear_2240_9025)" fill-opacity="0.2"/>
<path d="M24.6678 1.64972C24.5016 1.76842 24.2041 2.09175 24.028 2.35244C23.9002 2.54168 23.7399 2.85153 23.6291 3.10888L23.538 3.34281C23.4516 3.60686 23.388 4.09105 23.4079 4.38782L23.4088 4.39699L23.4089 4.40676C23.418 4.73242 23.4915 5.18343 23.5557 5.38415L23.5565 5.38844C23.6019 5.5349 23.7323 5.78229 23.9021 6.0429L24.0838 6.30479C24.3829 6.69215 24.614 6.89247 24.9621 7.10398L24.9704 7.10994C25.2165 7.26624 25.7142 7.46643 26.022 7.53065L26.0301 7.53309C26.2353 7.57961 26.4348 7.63946 26.5948 7.69873C26.6741 7.7281 26.7522 7.75974 26.8192 7.79348C26.8525 7.81023 26.8908 7.83162 26.928 7.85643C26.9425 7.86611 26.9658 7.88244 26.9927 7.90526L27.0785 7.99446L27.1588 8.12124C27.1821 8.16615 27.2021 8.2135 27.2169 8.26253C27.2424 8.3471 27.2765 8.51368 27.2061 8.69219L27.1989 8.71005L27.1911 8.72714C27.1272 8.85857 27.0234 8.92255 27.0129 8.92951C26.9811 8.95056 26.9528 8.96425 26.9378 8.97124C26.9062 8.98599 26.8754 8.99745 26.854 9.00487C26.8081 9.02076 26.7506 9.03738 26.6909 9.05392C26.569 9.08767 26.4011 9.13015 26.2019 9.17742C25.8013 9.27249 25.257 9.39282 24.6655 9.51517L24.662 9.51541C23.4829 9.75004 21.7531 10.115 20.8294 10.3181L20.8244 10.3195C19.8616 10.521 18.7823 10.836 18.3071 11.0383L18.3034 11.0399C17.8257 11.238 17.0509 11.638 16.6161 11.9248L16.6086 11.9294C16.1638 12.2114 15.4654 12.7477 15.0668 13.1028C14.6676 13.4724 14.1358 14.0302 13.9008 14.3372L13.894 14.346C13.7111 14.5739 13.2443 15.268 12.743 16.0579L12.2391 16.8668C11.4597 18.1405 10.8076 19.0831 10.368 19.56L10.3657 19.5617C10.0264 19.9257 9.55031 20.3884 9.30018 20.5808C9.04193 20.7794 8.47989 21.1146 8.03483 21.3543L8.03329 21.3555C7.58867 21.5931 6.95468 21.8689 6.59469 21.9679L6.59451 21.9693L6.59177 21.9689C6.5899 21.9694 6.58839 21.9712 6.58653 21.9717L6.58671 21.9703C6.34449 22.0397 5.64338 22.2061 4.85441 22.3786L4.04141 22.5517C3.05175 22.7565 2.5947 22.8545 2.30512 22.9533C2.06054 23.0367 1.95713 23.1112 1.66769 23.3338C1.41261 23.53 1.29252 23.6362 1.20983 23.7365C1.13367 23.8289 1.07214 23.9369 0.974777 24.1661L0.975373 24.1669C0.859219 24.4413 0.775247 24.8446 0.779931 25.0293C0.785247 25.2343 0.874164 25.6438 0.971334 25.8997C1.09296 26.1863 1.24372 26.4176 1.3549 26.525C1.36558 26.5323 1.38529 26.5452 1.41653 26.565C1.47601 26.6029 1.55852 26.6528 1.66307 26.7142C1.8717 26.8368 2.15745 26.9984 2.50031 27.1877C3.18541 27.5661 4.09085 28.0512 5.05114 28.5486C6.01454 29.0475 6.91492 29.5132 7.58655 29.8621C7.92228 30.0366 8.20159 30.1823 8.40348 30.2884L8.75756 30.4781C8.7596 30.4792 8.76203 30.4806 8.76405 30.4817C8.77355 30.4872 8.78185 30.4914 8.78805 30.4953L8.7865 30.4965C8.89549 30.5634 8.98375 30.6624 9.035 30.7908C9.08246 30.9096 9.08831 31.027 9.08599 31.115C9.08143 31.2881 9.03667 31.5149 8.96541 31.804C8.81882 32.3987 8.51317 33.4307 7.96865 35.2255C7.63192 36.3404 7.32584 37.4028 7.10261 38.2163C6.9909 38.6234 6.90047 38.9663 6.83779 39.2207C6.80641 39.3481 6.78313 39.4506 6.76726 39.5263C6.7576 39.5724 6.75192 39.6 6.74957 39.6138C6.74933 39.7951 6.80911 40.1539 6.8899 40.3793L6.89293 40.3881C6.98794 40.6703 7.10709 40.8599 7.30294 41.051L7.31401 41.0621C7.4468 41.2 7.79068 41.4276 8.03264 41.532L8.03853 41.5349C8.25825 41.6331 8.4927 41.6844 9.07806 41.6963L9.79334 41.6957C10.1856 41.6896 10.6736 41.6738 11.1426 41.6559L12.3738 41.6021C12.993 41.5624 13.8314 41.4541 14.2 41.3656L14.2057 41.3649C14.6055 41.2739 15.2348 41.0844 15.5951 40.953C15.9544 40.8187 16.6081 40.514 17.0356 40.2837C17.4671 40.0494 18.1023 39.6457 18.4451 39.3821C18.7872 39.1189 19.3158 38.6516 19.607 38.3554L19.6062 38.356C19.8856 38.0699 20.3536 37.5145 20.6411 37.1338L20.6403 37.1344C20.9066 36.7664 21.4713 35.7908 21.8699 34.9704L21.8708 34.9684L22.2055 34.3143C22.5572 33.654 22.9371 33.01 23.1603 32.7028L23.1653 32.6965L23.3294 32.4854C23.7067 32.0172 24.0618 31.704 24.8465 31.1005L24.8496 31.0981C25.3191 30.7434 25.6402 30.5093 25.9431 30.3286C26.255 30.1426 26.5381 30.019 26.9262 29.8719L26.9299 29.8703C27.2882 29.7382 27.7301 29.5915 28.0589 29.501L28.335 29.434C28.4301 29.4137 28.622 29.391 28.8493 29.3674C29.0907 29.3423 29.4078 29.3123 29.7764 29.2802C30.514 29.2159 31.4657 29.1407 32.4522 29.0703L32.4528 29.071C33.4474 29.0014 34.3609 28.9474 35.0314 28.9174C35.3658 28.9024 35.6438 28.8934 35.8427 28.8909C35.9409 28.8897 36.0272 28.8895 36.0939 28.8924C36.1255 28.8938 36.165 28.8964 36.2034 28.9018C36.2211 28.9043 36.2546 28.9091 36.2929 28.9205C36.3119 28.9261 36.3446 28.9374 36.3822 28.9565C36.4056 28.9684 36.4541 28.9951 36.5045 29.0435L36.555 29.0995L36.5964 29.1613C36.6012 29.1699 36.605 29.1775 36.607 29.1815C36.6111 29.1896 36.6145 29.1975 36.6168 29.2023C36.6217 29.2126 36.6271 29.225 36.6325 29.2371C36.6437 29.2621 36.6596 29.2969 36.6783 29.3399C36.7158 29.4261 36.7695 29.5512 36.838 29.711C36.9754 30.0313 37.1729 30.495 37.42 31.0732C37.9144 32.2302 38.6073 33.85 39.4109 35.7155C40.9982 39.4003 43.0184 44.0419 44.8001 47.9707L45.078 48.1254L45.0845 48.129C45.2685 48.2349 45.51 48.2893 45.7393 48.282C45.9661 48.2691 46.1376 48.2028 46.2562 48.1211C46.2907 48.0922 46.3518 48.0323 46.4214 47.9435C46.4581 47.8966 46.4913 47.8488 46.5203 47.8046L46.5909 47.685C46.6275 47.6084 46.6663 47.5108 46.6969 47.4174C46.7126 47.3696 46.7252 47.3262 46.7335 47.292C46.7375 47.2753 46.7396 47.2632 46.741 47.2554C46.7402 47.2243 46.736 47.1588 46.7204 47.0667C46.7035 46.9672 46.6784 46.8627 46.6516 46.7771C46.6415 46.7527 46.6168 46.6953 46.5744 46.595C46.5186 46.463 46.4373 46.2722 46.3314 46.0243C46.1192 45.5278 45.8085 44.8029 45.4036 43.8649C44.5939 41.9888 43.4093 39.2584 41.8902 35.7884C38.8522 28.8484 34.4759 18.9494 29.0866 7.00447L28.9722 6.74998L29.1284 6.51897L29.3995 6.11703L29.4951 5.9561C29.5978 5.76268 29.7179 5.48369 29.7877 5.25055C29.8699 4.95426 29.9368 4.43908 29.9318 4.15166C29.9271 3.87807 29.8306 3.41456 29.7373 3.16663C29.62 2.86718 29.4237 2.5613 29.0814 2.16317L29.0815 2.1618C28.7749 1.81047 28.4555 1.53474 28.2606 1.42441C28.081 1.32625 27.6475 1.18292 27.3189 1.12738L27.3175 1.1272C27.0552 1.08249 26.7562 1.04686 26.5587 1.03442L26.4005 1.03048C26.2641 1.03957 25.8744 1.12372 25.5518 1.22611C25.2445 1.32369 24.8356 1.52194 24.6823 1.63978L24.6754 1.64514L24.6678 1.64972Z" stroke="url(#paint1_linear_2240_9025)" stroke-opacity="0.4"/>
<defs>
<linearGradient id="paint0_linear_2240_9025" x1="36.276" y1="45.1272" x2="7.25449" y2="7.39166" gradientUnits="userSpaceOnUse">
<stop stop-color="#B168FF"/>
<stop offset="1" stop-color="#8049F3"/>
</linearGradient>
<linearGradient id="paint1_linear_2240_9025" x1="41.7379" y1="52.2292" x2="6.53159" y2="6.4517" gradientUnits="userSpaceOnUse">
<stop stop-color="#B168FF"/>
<stop offset="1" stop-color="#8049F3"/>
</linearGradient>
</defs>
</svg>
