<svg width="22" height="17" viewBox="0 0 22 17" fill="white" xmlns="http://www.w3.org/2000/svg">
<path d="M4.17705 1.17792L4.17414 1.17459C4.10027 1.10132 4.01269 1.04332 3.91641 1.0039C3.82013 0.964476 3.71702 0.944405 3.61298 0.944831C3.50894 0.945256 3.406 0.96617 3.31004 1.00638C3.21409 1.04659 3.12699 1.1053 3.05372 1.17917C2.98045 1.25304 2.92245 1.34061 2.88303 1.4369C2.84361 1.53318 2.82354 1.63629 2.82397 1.74033C2.82483 1.95045 2.90912 2.15162 3.0583 2.29959L4.25289 3.49417C2.80418 4.48636 1.55721 5.74479 0.578304 7.2025C0.41845 7.43852 0.333008 7.71703 0.333008 8.00208C0.333008 8.28714 0.41845 8.56565 0.578304 8.80167C3.07705 12.5 7.0383 14.6667 10.9996 14.6396C12.2827 14.6442 13.5572 14.4306 14.7687 14.0079L16.7025 15.9417C16.8515 16.0858 17.0511 16.1658 17.2584 16.1644C17.4657 16.163 17.6642 16.0803 17.8112 15.9341C17.9582 15.7879 18.042 15.5899 18.0446 15.3826C18.0472 15.1753 17.9683 14.9752 17.825 14.8254L4.17705 1.17792ZM10.9996 12.4892C10.2491 12.4889 9.51059 12.3005 8.85164 11.9413C8.1927 11.5821 7.6343 11.0634 7.22746 10.4328C6.82062 9.80209 6.57833 9.07952 6.52272 8.33108C6.46712 7.58264 6.59997 6.8322 6.90914 6.14834L8.15705 7.39625C8.05654 7.86992 8.07596 8.36119 8.21356 8.82544C8.35116 9.28969 8.60258 9.7122 8.94497 10.0546C9.28735 10.397 9.70987 10.6484 10.1741 10.786C10.6384 10.9236 11.1296 10.943 11.6033 10.8425L12.8512 12.0904C12.2696 12.3541 11.6382 12.4901 10.9996 12.4892Z" fill="white"/>
<path d="M21.4208 7.20042C18.9221 3.5 14.9608 1.33334 10.9996 1.36042C9.71644 1.35577 8.44188 1.56937 7.23039 1.99209L9.14705 3.90875C9.97875 3.53237 10.9054 3.4184 11.8035 3.58203C12.7016 3.74566 13.5286 4.17912 14.1741 4.82463C14.8196 5.47015 15.2531 6.29707 15.4167 7.19519C15.5803 8.09331 15.4664 9.01997 15.09 9.85167L17.7458 12.5075C19.1948 11.5155 20.4419 10.257 21.4208 8.79917C21.5806 8.5632 21.666 8.28476 21.666 7.99979C21.666 7.71482 21.5806 7.43639 21.4208 7.20042Z" fill="white"/>
<path d="M10.9996 5.09417C10.7966 5.09419 10.5943 5.11542 10.3958 5.1575L13.8421 8.60334C13.9319 8.17996 13.9261 7.74186 13.8249 7.32104C13.7238 6.90021 13.53 6.50729 13.2575 6.17098C12.9851 5.83466 12.641 5.56345 12.2504 5.37715C11.8597 5.19085 11.4324 5.09417 10.9996 5.09417Z" fill="white"/>
</svg>
