<svg width="136" height="87" viewBox="0 0 136 87" fill="none" xmlns="http://www.w3.org/2000/svg">
<path d="M2.63352 78.896L6.22349 41.7293H18.8306L22.3572 78.896H15.3251L14.7972 72.8986H10.3203L9.85568 78.896H2.63352ZM10.8482 66.9646H14.227L12.601 48.0645H12.2631L10.8482 66.9646ZM33.296 79.2339C30.6071 79.2339 28.439 78.3962 26.7919 76.7209C25.1588 75.0456 24.3422 72.7015 24.3422 69.6888V52.5414C24.3422 48.9374 25.0532 46.1781 26.4751 44.2634C27.9111 42.3488 30.241 41.3914 33.465 41.3914C35.2248 41.3914 36.7875 41.7152 38.153 42.3628C39.5327 43.0104 40.6167 43.9818 41.4051 45.277C42.1935 46.5582 42.5877 48.1772 42.5877 50.1341V56.5538H35.1966V51.0632C35.1966 49.951 35.0558 49.2049 34.7743 48.8248C34.4927 48.4306 34.0563 48.2335 33.465 48.2335C32.7751 48.2335 32.3106 48.4869 32.0712 48.9937C31.8319 49.4865 31.7122 50.1481 31.7122 50.9788V69.5832C31.7122 70.6109 31.86 71.336 32.1557 71.7583C32.4654 72.1807 32.9018 72.3918 33.465 72.3918C34.0985 72.3918 34.542 72.1314 34.7954 71.6105C35.0629 71.0896 35.1966 70.4138 35.1966 69.5832V62.889H42.6722V69.9211C42.6722 73.1873 41.8486 75.5594 40.2014 77.0377C38.5543 78.5018 36.2525 79.2339 33.296 79.2339ZM53.8222 79.2339C51.1332 79.2339 48.9652 78.3962 47.318 76.7209C45.6849 75.0456 44.8684 72.7015 44.8684 69.6888V52.5414C44.8684 48.9374 45.5793 46.1781 47.0012 44.2634C48.4372 42.3488 50.7672 41.3914 53.9911 41.3914C55.7509 41.3914 57.3136 41.7152 58.6792 42.3628C60.0589 43.0104 61.1429 43.9818 61.9313 45.277C62.7197 46.5582 63.1138 48.1772 63.1138 50.1341V56.5538H55.7227V51.0632C55.7227 49.951 55.582 49.2049 55.3004 48.8248C55.0188 48.4306 54.5824 48.2335 53.9911 48.2335C53.3013 48.2335 52.8367 48.4869 52.5974 48.9937C52.358 49.4865 52.2384 50.1481 52.2384 50.9788V69.5832C52.2384 70.6109 52.3862 71.336 52.6818 71.7583C52.9916 72.1807 53.428 72.3918 53.9911 72.3918C54.6246 72.3918 55.0681 72.1314 55.3215 71.6105C55.589 71.0896 55.7227 70.4138 55.7227 69.5832V62.889H63.1983V69.9211C63.1983 73.1873 62.3747 75.5594 60.7276 77.0377C59.0804 78.5018 56.7786 79.2339 53.8222 79.2339ZM74.5595 79.2339C71.589 79.2339 69.3153 78.3399 67.7386 76.552C66.1759 74.7499 65.3945 72.1525 65.3945 68.7596V51.1055C65.3945 47.9238 66.1688 45.5093 67.7174 43.8622C69.2801 42.215 71.5608 41.3914 74.5595 41.3914C77.5582 41.3914 79.8318 42.215 81.3804 43.8622C82.9431 45.5093 83.7245 47.9238 83.7245 51.1055V68.7596C83.7245 72.1525 82.9361 74.7499 81.3593 76.552C79.7966 78.3399 77.53 79.2339 74.5595 79.2339ZM74.6228 72.3918C75.7491 72.3918 76.3122 71.3008 76.3122 69.1186V50.9788C76.3122 49.1486 75.7632 48.2335 74.6651 48.2335C73.4262 48.2335 72.8067 49.1697 72.8067 51.0421V69.1609C72.8067 70.3153 72.9475 71.1459 73.2291 71.6527C73.5107 72.1455 73.9752 72.3918 74.6228 72.3918ZM86.7231 78.896V41.7293H98.1266C100.027 41.7293 101.463 42.1657 102.435 43.0386C103.406 43.8974 104.054 45.1081 104.377 46.6708C104.715 48.2194 104.884 50.0425 104.884 52.1402C104.884 54.1675 104.624 55.7865 104.103 56.9972C103.596 58.208 102.632 59.0456 101.21 59.5102C102.378 59.7495 103.195 60.3338 103.659 61.2629C104.138 62.178 104.377 63.3676 104.377 64.8318V78.896H97.0496V64.3461C97.0496 63.2621 96.8243 62.5933 96.3738 62.3399C95.9374 62.0724 95.2264 61.9387 94.2409 61.9387V78.896H86.7231ZM94.2832 55.4979H96.0782C97.1059 55.4979 97.6197 54.3787 97.6197 52.1402C97.6197 50.6901 97.5071 49.7399 97.2819 49.2894C97.0566 48.8389 96.6343 48.6136 96.0148 48.6136H94.2832V55.4979ZM107.334 78.896V41.7293H117.555C120.229 41.7293 122.243 42.4755 123.594 43.9678C124.946 45.446 125.621 47.614 125.621 50.4719V67.8727C125.621 71.3923 125.002 74.1094 123.763 76.024C122.538 77.9387 120.384 78.896 117.301 78.896H107.334ZM114.809 72.3285H116.097C117.463 72.3285 118.146 71.6668 118.146 70.3434V51.1688C118.146 49.9299 117.977 49.1345 117.639 48.7825C117.315 48.4165 116.647 48.2335 115.633 48.2335H114.809V72.3285Z" fill="url(#paint0_linear_2021_4055)"/>
<g filter="url(#filter0_d_2021_4055)">
<path d="M44.4389 50.2122C43.8045 50.2122 43.2279 50.0392 42.7089 49.6932C41.8439 49.1454 41.1087 48.2804 40.5032 47.0983C39.8978 45.9162 39.4076 44.489 39.0328 42.8167C38.658 41.1732 38.3697 39.4289 38.1678 37.5836C38.0237 36.2573 37.9228 34.931 37.8651 33.6047C37.8074 32.2785 37.7786 30.9954 37.7786 29.7556C37.7786 29.2366 37.7786 28.7321 37.7786 28.2419C37.7786 27.7229 37.793 27.2328 37.8218 26.7715C36.755 28.5591 35.6017 30.3034 34.362 32.0046C33.1222 33.6768 31.9112 35.2338 30.7291 36.6754C29.9506 37.598 29.0424 38.5783 28.0044 39.6163C26.9665 40.6254 25.8564 41.5625 24.6743 42.4274C23.521 43.2924 22.3821 43.97 21.2577 44.4601C20.7963 44.6619 20.3494 44.8061 19.917 44.8926C19.4845 45.0079 19.0952 45.0656 18.7493 45.0656C17.8843 45.0656 17.2211 44.7917 16.7598 44.2439C16.3273 43.7249 16.1111 43.0329 16.1111 42.1679C16.1111 41.303 16.3562 40.3083 16.8463 39.1838C17.1058 38.6648 17.5239 37.8719 18.1005 36.8051C18.6772 35.7383 19.3403 34.5418 20.09 33.2155L24.631 24.9118C25.1789 23.9315 25.7555 22.8791 26.361 21.7547C26.9665 20.6302 27.5287 19.5201 28.0477 18.4245C28.5955 17.3289 29.028 16.3342 29.3451 15.4404C29.6623 14.5177 29.8064 13.7825 29.7776 13.2347C29.374 13.9267 28.8838 14.7051 28.3072 15.5701C27.7594 16.4351 27.1827 17.3289 26.5772 18.2515C25.8564 19.3183 25.0347 20.5293 24.1121 21.8844C23.2183 23.2107 22.2956 24.537 21.3442 25.8633C20.3927 27.1607 19.4845 28.2708 18.6195 29.1934C17.1202 30.7792 15.4768 32.0766 13.6892 33.0858C11.9304 34.0661 9.94097 34.5274 7.72088 34.4697C6.68292 34.4121 5.8612 33.994 5.25572 33.2155C4.65024 32.437 4.3475 31.6153 4.3475 30.7503C4.3475 30.2602 4.46283 29.7845 4.69349 29.3231C4.95298 28.7177 5.41429 28.0545 6.07744 27.3337C6.74058 26.6129 7.46139 25.9498 8.23986 25.3443C9.01834 24.7388 9.72473 24.2919 10.359 24.0036C10.5032 23.9171 10.5753 23.9171 10.5753 24.0036C10.6041 24.0612 10.5465 24.1333 10.4023 24.2198C10.0563 24.5658 9.63823 25.0704 9.14808 25.7335C8.65793 26.3678 8.1822 27.0742 7.72088 27.8527C7.2884 28.6312 6.94241 29.3808 6.68292 30.1016C6.48109 30.7359 6.38018 31.3702 6.38018 32.0046C6.38018 32.5235 6.48109 32.956 6.68292 33.302C6.91358 33.6192 7.30281 33.7777 7.85063 33.7777C9.00392 33.7777 10.2581 33.3741 11.6132 32.5668C12.9395 31.7595 14.2802 30.7215 15.6354 29.4529C17.0193 28.1554 18.3888 26.7138 19.744 25.128C21.0703 23.5423 22.3389 21.9853 23.5498 20.4572C24.213 19.6211 24.905 18.7273 25.6258 17.7758C26.3754 16.8243 27.0818 15.9305 27.7449 15.0944C28.4081 14.2294 28.9415 13.5663 29.3451 13.105C29.5181 12.932 29.6911 12.7301 29.8641 12.4995C29.9218 12.413 29.9939 12.3697 30.0804 12.3697C30.1669 12.3697 30.2822 12.4418 30.4263 12.586C31.176 13.4221 31.5508 14.5033 31.5508 15.8296C31.5508 17.1271 31.2481 18.5543 30.6426 20.1112C30.0371 21.6393 29.3019 23.1963 28.4369 24.7821C27.8603 25.82 27.2115 26.9589 26.4907 28.1987C25.7699 29.4096 25.0491 30.6206 24.3283 31.8316C23.6075 33.0137 22.9732 34.0949 22.4254 35.0752C21.8776 36.0267 21.4739 36.7619 21.2144 37.2809C20.9261 37.8575 20.6234 38.5062 20.3062 39.2271C19.989 39.9479 19.7151 40.6398 19.4845 41.303C19.2826 41.9373 19.1817 42.4707 19.1817 42.9032C19.1817 43.5375 19.4556 43.8546 20.0035 43.8546C20.2629 43.8546 20.6666 43.7393 21.2144 43.5087C21.9641 43.1627 22.7714 42.6437 23.6363 41.9517C24.5013 41.2309 25.3663 40.438 26.2312 39.573C27.0962 38.6792 27.9035 37.7998 28.6532 36.9349C29.4028 36.0411 30.0227 35.277 30.5128 34.6427C31.7815 33.0569 33.0645 31.3991 34.362 29.6691C35.6594 27.9104 36.856 26.1372 37.9516 24.3496C37.9804 23.3693 38.0381 22.5187 38.1246 21.7979C38.2399 21.0771 38.3264 20.5149 38.3841 20.1112C38.4994 19.6211 38.7156 19.2607 39.0328 19.03C39.35 18.7993 39.6959 18.684 40.0708 18.684C40.4456 18.684 40.7772 18.8138 41.0655 19.0732C41.3538 19.3327 41.498 19.722 41.498 20.241C41.498 20.3275 41.498 20.414 41.498 20.5004C41.498 20.5869 41.4835 20.6734 41.4547 20.7599C41.3394 21.3654 41.2096 22.216 41.0655 23.3116C40.9501 24.4072 40.8204 25.647 40.6762 27.031C40.5609 28.3861 40.46 29.7989 40.3735 31.2693C40.3158 32.7398 40.287 34.167 40.287 35.5509C40.287 35.8969 40.287 36.2429 40.287 36.5889C40.3158 36.906 40.3303 37.2232 40.3303 37.5404C40.3879 38.982 40.4888 40.3948 40.633 41.7787C40.806 43.1627 41.0511 44.4169 41.3682 45.5413C41.7142 46.6658 42.1467 47.5596 42.6657 48.2227C43.2135 48.8859 43.8766 49.2175 44.6551 49.2175C44.9723 49.2175 45.275 49.1742 45.5633 49.0877C46.3706 48.857 47.1923 48.2948 48.0285 47.401C49.7584 45.5557 51.2577 42.9032 52.5263 39.4433C53.1606 37.7422 53.694 35.9402 54.1265 34.0372C54.7032 31.4135 54.9915 28.7753 54.9915 26.1228C54.9915 25.4884 54.9627 24.8685 54.905 24.2631C54.8762 23.6576 54.8329 23.0521 54.7753 22.4466C54.6599 21.7258 54.5013 20.9185 54.2995 20.0247C54.0977 19.1309 53.7805 18.2948 53.3481 17.5163C52.8579 16.6513 52.2668 16.2188 51.5749 16.2188C50.7676 16.2188 49.9026 16.7667 48.98 17.8623C48.807 18.0641 48.706 18.165 48.6772 18.165C48.6484 18.165 48.634 18.1362 48.634 18.0785C48.634 17.8767 48.6916 17.646 48.807 17.3866C48.8646 17.1847 49.0664 16.9252 49.4124 16.6081C49.7584 16.2621 50.1332 15.9449 50.5369 15.6566C50.9694 15.3683 51.3442 15.1809 51.6614 15.0944C51.9785 15.0079 52.2668 14.9502 52.5263 14.9214C52.8147 14.8926 53.0886 14.8781 53.3481 14.8781C54.5013 14.8781 55.3951 15.2097 56.0295 15.8729C56.6926 16.5072 57.1683 17.3866 57.4567 18.511C57.745 19.6355 57.8891 20.9041 57.8891 22.3169C57.8891 22.6917 57.8747 23.0809 57.8459 23.4846C57.8459 23.8882 57.8315 24.2919 57.8026 24.6956C57.6585 26.0507 57.4422 27.4635 57.1539 28.9339C56.8944 30.3755 56.5917 31.7883 56.2457 33.1723C55.8997 34.5274 55.5537 35.7672 55.2077 36.8916C54.8617 38.0161 54.559 38.9243 54.2995 39.6163C53.6652 41.2021 52.9012 42.7158 52.0073 44.1574C51.1424 45.6278 50.1765 46.8676 49.1097 47.8768C48.0717 48.9147 46.9617 49.6211 45.7796 49.9959C45.5489 50.0536 45.3182 50.0968 45.0876 50.1257C44.8858 50.1833 44.6695 50.2122 44.4389 50.2122ZM67.3308 43.5519C66.1775 43.5519 65.6009 42.8023 65.6009 41.303C65.6009 40.784 65.6874 40.2073 65.8604 39.573C65.918 39.3712 66.0478 39.0396 66.2496 38.5783C66.4514 38.117 66.6821 37.6124 66.9416 37.0646C67.2011 36.488 67.4462 35.9546 67.6768 35.4644C67.9075 34.9454 68.0661 34.5418 68.1526 34.2535C67.5471 35.1761 66.8695 36.0987 66.1199 37.0214C65.3991 37.9152 64.6206 38.6648 63.7845 39.2703C62.9483 39.8758 62.0545 40.1785 61.103 40.1785C60.2092 40.1497 59.5749 39.9046 59.2001 39.4433C58.8253 38.982 58.6379 38.4197 58.6379 37.7566C58.6379 36.9781 58.8109 36.1276 59.1569 35.2049C59.5029 34.2823 59.8921 33.4606 60.3246 32.7398C61.0742 31.5576 61.9824 30.4044 63.0492 29.2799C64.116 28.1554 65.2549 27.2328 66.4659 26.512C67.6768 25.7623 68.8301 25.3875 69.9257 25.3875C70.5024 25.3875 71.0646 25.4884 71.6124 25.6903C72.1602 25.8633 72.7081 26.166 73.2559 26.5985C73.6884 26.9445 73.9046 27.3193 73.9046 27.7229C73.9046 28.1266 73.7316 28.3284 73.3856 28.3284C73.1261 28.3284 72.9387 28.1554 72.8234 27.8094C72.4486 26.8291 71.8431 26.339 71.007 26.339C70.2573 26.339 69.4212 26.6706 68.4985 27.3337C67.5759 27.9969 66.6677 28.7897 65.7739 29.7124C64.7648 30.7215 63.871 31.8316 63.0925 33.0425C62.314 34.2535 61.7229 35.3491 61.3193 36.3294C60.9445 37.2232 60.7571 37.8863 60.7571 38.3188C60.7571 38.8666 60.9733 39.1406 61.4058 39.1406C61.8959 39.1406 62.6167 38.7657 63.5682 38.0161C64.2025 37.5259 64.8945 36.8916 65.6441 36.1132C66.3938 35.3059 67.1002 34.513 67.7633 33.7345C68.4265 32.956 68.9454 32.3505 69.3203 31.9181C69.6374 31.4279 69.8969 31.0387 70.0987 30.7503C70.2141 30.5773 70.4015 30.4476 70.661 30.3611C70.9205 30.2746 71.1944 30.2314 71.4827 30.2314C71.8287 30.2314 72.117 30.3034 72.3477 30.4476C72.5783 30.5629 72.636 30.7503 72.5207 31.0098C72.4053 31.2693 72.1458 31.7739 71.7422 32.5235C71.3674 33.2443 70.9349 34.0661 70.4447 34.9887C69.9834 35.9113 69.5365 36.7907 69.104 37.6269C68.7004 38.463 68.3976 39.1117 68.1958 39.573C67.7921 40.4668 67.5903 41.13 67.5903 41.5625C67.5903 41.9373 67.7345 42.1247 68.0228 42.1247C68.2246 42.1247 68.5274 42.0094 68.931 41.7787C69.5653 41.4616 70.1996 41.0147 70.834 40.438C71.4683 39.8325 72.0737 39.1982 72.6504 38.5351C72.9676 38.2179 73.2559 37.9152 73.5154 37.6269C73.7749 37.3385 74.0199 37.0358 74.2506 36.7186C74.3371 36.6321 74.4092 36.5889 74.4668 36.5889C74.6398 36.5889 74.7263 36.7186 74.7263 36.9781C74.7263 37.1223 74.6687 37.252 74.5533 37.3674C74.2362 37.771 73.919 38.1603 73.6019 38.5351C73.2847 38.9099 72.9531 39.2847 72.6071 39.6595C72.29 40.0344 71.9584 40.4092 71.6124 40.784C71.2953 41.13 70.9637 41.4616 70.6177 41.7787C69.9834 42.3842 69.3779 42.8311 68.8013 43.1194C68.2535 43.4077 67.7633 43.5519 67.3308 43.5519ZM76.733 50.6447C75.8392 50.6447 75.1905 50.414 74.7868 49.9527C74.412 49.5202 74.2246 48.9435 74.2246 48.2227C74.2246 47.7614 74.3111 47.2136 74.4841 46.5793C74.7147 45.599 75.104 44.5322 75.6518 43.3789C76.2284 42.2544 76.733 41.3606 77.1655 40.6975C77.5115 40.1785 77.8575 39.6451 78.2034 39.0973C78.5494 38.5495 78.9098 37.9873 79.2847 37.4106L81.4038 34.0372C81.8075 33.4029 82.0093 32.7686 82.0093 32.1343C82.0093 31.4423 81.7354 30.9089 81.1876 30.5341L80.5821 30.1449C80.3514 30.0007 80.1785 29.871 80.0631 29.7556L79.4576 30.7503L78.8522 31.7018C78.2467 32.5379 77.5547 33.4606 76.7762 34.4697C75.9978 35.4788 75.2481 36.4447 74.5273 37.3674C73.8065 38.29 73.201 39.0252 72.7109 39.573C72.6244 39.6595 72.5379 39.7028 72.4514 39.7028C72.3072 39.7028 72.2063 39.6307 72.1486 39.4865C72.0622 39.3424 72.0766 39.2126 72.1919 39.0973C73.3164 37.8287 74.3976 36.5312 75.4355 35.2049C76.5023 33.8498 77.4682 32.437 78.3332 30.9666L78.8522 30.1016L79.3711 29.1934C79.1405 29.0492 78.9242 28.7897 78.7224 28.4149C78.5206 28.0113 78.4197 27.6365 78.4197 27.2905C78.4197 26.8003 78.6215 26.512 79.0252 26.4255H79.0684C79.3567 26.4255 79.6451 26.5985 79.9334 26.9445C80.2217 27.3481 80.3514 28.0834 80.3226 29.1501C81.0146 29.6691 81.6922 30.0151 82.3553 30.1881C83.0184 30.3611 83.5518 30.5773 83.9555 30.8368C84.388 31.0675 84.6042 31.5288 84.6042 32.2208C84.6042 32.3361 84.5898 32.4659 84.561 32.61C84.561 32.7542 84.5466 32.8984 84.5177 33.0425C84.3736 33.7345 83.9987 34.585 83.3933 35.5942C82.8166 36.6033 82.1679 37.6413 81.4471 38.7081C80.7263 39.746 80.1064 40.6543 79.5874 41.4327C79.0684 42.2689 78.5206 43.1771 77.9439 44.1574C77.3673 45.1665 76.8916 46.118 76.5167 47.0118C76.1708 47.9056 76.0554 48.612 76.1708 49.131C76.2573 49.4193 76.4591 49.5634 76.7762 49.5634C77.2376 49.5634 77.7998 49.376 78.4629 49.0012C79.3567 48.4822 80.1785 47.92 80.9281 47.3145C81.6777 46.7379 82.4562 46.0459 83.2635 45.2386C83.696 44.8061 84.2438 44.2006 84.907 43.4222C85.5989 42.6725 86.3197 41.8652 87.0694 41.0002C87.819 40.1064 88.511 39.2991 89.1453 38.5783C89.4048 38.2323 89.6931 37.8863 90.0103 37.5404L90.8753 36.5889C90.9617 36.5024 91.0338 36.4591 91.0915 36.4591C91.2645 36.4591 91.351 36.5745 91.351 36.8051C91.351 36.8916 91.2789 37.0358 91.1347 37.2376C90.8464 37.6413 90.5148 38.0593 90.14 38.4918C89.794 38.9243 89.4625 39.328 89.1453 39.7028C88.3957 40.5678 87.5595 41.5481 86.6369 42.6437C85.7431 43.7105 84.8349 44.7629 83.9122 45.8008C83.0184 46.8388 82.1535 47.7326 81.3173 48.4822C80.6542 49.0589 79.9622 49.5634 79.2414 49.9959C78.5206 50.4284 77.6845 50.6447 76.733 50.6447ZM102.502 50.9906C101.897 50.9906 101.392 50.7023 100.988 50.1257C100.613 49.5779 100.426 48.9147 100.426 48.1362C100.426 47.9344 100.44 47.7326 100.469 47.5308C100.527 47.3289 100.57 47.1271 100.599 46.9253C100.743 46.3486 100.959 45.6422 101.248 44.8061C101.565 43.9988 101.925 43.1338 102.329 42.2112C102.761 41.2886 103.18 40.4092 103.583 39.573C104.016 38.7369 104.419 38.0161 104.794 37.4106C104.938 37.2088 105.169 36.8484 105.486 36.3294C105.803 35.7816 106.135 35.2049 106.481 34.5995C106.827 33.9651 107.13 33.4173 107.389 32.956C107.908 32.0334 108.168 31.3847 108.168 31.0098C108.168 30.5197 107.663 30.6927 106.654 31.5288C105.933 32.1631 105.111 32.9704 104.189 33.9507C103.295 34.931 102.401 35.9834 101.507 37.1079C100.613 38.2323 99.8062 39.328 99.0854 40.3948C98.9412 40.6543 98.725 40.9137 98.4366 41.1732C98.1772 41.4327 97.8167 41.5625 97.3554 41.5625C97.1824 41.5625 96.9806 41.5192 96.75 41.4327C96.5193 41.3174 96.404 41.0435 96.404 40.611C96.404 40.0632 96.6346 39.3568 97.0959 38.4918C97.5573 37.598 98.1195 36.6321 98.7826 35.5942C99.4746 34.5562 100.152 33.5038 100.815 32.437C101.507 31.3702 102.07 30.3755 102.502 29.4529C102.733 28.9627 102.891 28.5591 102.978 28.2419C103.093 27.9248 103.151 27.6797 103.151 27.5067C103.151 27.3049 103.079 27.204 102.934 27.204C102.588 27.204 101.997 27.5788 101.161 28.3284C100.585 28.8474 99.9503 29.4817 99.2584 30.2314C98.5376 31.0098 97.8167 31.8604 97.0959 32.783C96.3751 33.6768 95.6687 34.5995 94.9768 35.5509C94.2848 36.5312 93.6361 37.4683 93.0306 38.3621C92.3963 39.2847 91.834 40.1353 91.3439 40.9137C90.8537 41.6922 90.4789 42.3409 90.2194 42.8599C90.0176 43.2924 89.6716 43.5087 89.1815 43.5087C88.9508 43.5087 88.749 43.4077 88.576 43.2059C88.3742 43.0041 88.3021 42.7158 88.3597 42.3409C89.167 40.8128 89.8158 39.4289 90.3059 38.1891C90.7961 36.9493 91.2574 35.7239 91.6899 34.513C92.1512 33.302 92.7567 31.9613 93.5063 30.4909C93.737 30.0584 94.155 29.6547 94.7605 29.2799C95.3948 28.8762 95.9282 28.6744 96.3607 28.6744C96.822 28.6744 97.0527 28.8186 97.0527 29.1069C97.0527 29.3376 96.9085 29.6835 96.6202 30.1449C96.2742 30.6927 95.8417 31.4423 95.3228 32.3938C94.8038 33.3453 94.2848 34.34 93.7658 35.3779C93.2468 36.3871 92.7999 37.2809 92.4251 38.0593L93.5496 36.4159C94.0685 35.6663 94.6596 34.8301 95.3228 33.9075C96.0147 32.956 96.7644 31.9757 97.5717 30.9666C98.379 29.9863 99.1863 29.1069 99.9936 28.3284C100.772 27.55 101.522 26.9301 102.243 26.4687C102.992 26.0074 103.655 25.82 104.232 25.9065C104.866 26.0218 105.299 26.2525 105.529 26.5985C105.76 26.9445 105.875 27.3625 105.875 27.8527C105.875 28.1698 105.688 28.6456 105.313 29.2799C104.967 29.9142 104.535 30.6062 104.016 31.3558C103.497 32.1055 102.992 32.8263 102.502 33.5182C102.012 34.2102 101.637 34.7725 101.378 35.2049C101.176 35.5509 100.859 36.0555 100.426 36.7186C100.022 37.3529 99.6332 37.9728 99.2584 38.5783C98.8835 39.1838 98.6529 39.573 98.5664 39.746C98.5087 39.8902 98.5087 39.9767 98.5664 40.0055C98.6241 40.0344 98.7105 39.9623 98.8259 39.7893C99.1142 39.328 99.5179 38.7369 100.037 38.0161C100.556 37.2665 101.118 36.5024 101.724 35.7239C102.358 34.9166 102.963 34.1814 103.54 33.5182C104.03 32.9416 104.592 32.365 105.227 31.7883C105.861 31.1828 106.495 30.6783 107.13 30.2746C107.764 29.871 108.326 29.6691 108.816 29.6691C109.422 29.6691 109.825 29.8277 110.027 30.1449C110.229 30.4332 110.33 30.7792 110.33 31.1828C110.33 31.5288 110.157 32.0766 109.811 32.8263C109.465 33.5759 109.004 34.4553 108.427 35.4644C108.225 35.8393 107.908 36.4303 107.476 37.2376C107.072 38.0449 106.639 38.9099 106.178 39.8325C105.746 40.7552 105.371 41.5625 105.054 42.2544C104.679 43.0329 104.29 43.8979 103.886 44.8494C103.511 45.8008 103.18 46.709 102.891 47.574C102.603 48.439 102.43 49.131 102.372 49.6499V49.7797C102.372 49.9815 102.488 50.0824 102.718 50.0824C102.718 50.1113 102.733 50.1257 102.761 50.1257C102.992 50.1257 103.295 50.0103 103.67 49.7797C103.987 49.6067 104.477 49.1886 105.14 48.5255C105.832 47.8623 106.567 47.1127 107.346 46.2766C108.124 45.4404 108.845 44.6475 109.508 43.8979C110.2 43.1771 110.69 42.6437 110.979 42.2977L113.011 39.919C113.559 39.2559 113.948 38.809 114.179 38.5783L115.909 36.5889C115.996 36.5024 116.068 36.4591 116.125 36.4591C116.298 36.4591 116.385 36.5745 116.385 36.8051C116.385 36.9493 116.327 37.0935 116.212 37.2376C115.895 37.6413 115.549 38.0593 115.174 38.4918C114.828 38.9243 114.496 39.328 114.179 39.7028C114.15 39.7316 113.92 40.0199 113.487 40.5678C113.055 41.1156 112.507 41.7931 111.844 42.6004C111.181 43.4077 110.517 44.215 109.854 45.0223C109.191 45.8585 108.614 46.5793 108.124 47.1848C107.634 47.7903 107.346 48.1507 107.259 48.266C106.683 48.9291 105.976 49.549 105.14 50.1257C104.333 50.7023 103.453 50.9906 102.502 50.9906Z" fill="white"/>
</g>
<defs>
<filter id="filter0_d_2021_4055" x="0.0228057" y="12.3696" width="120.687" height="47.2708" filterUnits="userSpaceOnUse" color-interpolation-filters="sRGB">
<feFlood flood-opacity="0" result="BackgroundImageFix"/>
<feColorMatrix in="SourceAlpha" type="matrix" values="0 0 0 0 0 0 0 0 0 0 0 0 0 0 0 0 0 0 127 0" result="hardAlpha"/>
<feOffset dy="4.32485"/>
<feGaussianBlur stdDeviation="2.16243"/>
<feComposite in2="hardAlpha" operator="out"/>
<feColorMatrix type="matrix" values="0 0 0 0 0 0 0 0 0 0 0 0 0 0 0 0 0 0 0.25 0"/>
<feBlend mode="normal" in2="BackgroundImageFix" result="effect1_dropShadow_2021_4055"/>
<feBlend mode="normal" in="SourceGraphic" in2="effect1_dropShadow_2021_4055" result="shape"/>
</filter>
<linearGradient id="paint0_linear_2021_4055" x1="68.875" y1="86.896" x2="68.875" y2="33.896" gradientUnits="userSpaceOnUse">
<stop stop-color="white"/>
<stop offset="1" stop-color="#AEA2F6"/>
</linearGradient>
</defs>
</svg>
