<svg width="49" height="48" viewBox="0 0 49 48" fill="none" xmlns="http://www.w3.org/2000/svg">
<path d="M29.748 4.03906C30.1997 3.96507 30.6624 3.99559 31.1006 4.12793C31.5313 4.27759 31.9217 4.52422 32.2432 4.84766H32.2441C32.5657 5.18314 32.7985 5.59401 32.9219 6.04199L32.9248 6.05176L33.7852 9.05176V9.05078C33.8916 9.42743 34.1164 9.76031 34.4268 9.99902C34.7389 10.239 35.121 10.3712 35.5146 10.376H38.5527L38.5791 10.375C38.9978 10.3528 39.416 10.4357 39.7939 10.6172L39.8018 10.6211C40.2062 10.8107 40.5586 11.0974 40.8262 11.4551L40.8311 11.4629L40.8369 11.4707C41.1117 11.8237 41.2914 12.2412 41.3574 12.6836L41.3594 12.6963C41.4324 13.1465 41.4014 13.6073 41.2695 14.0439L40.1787 17.2764C40.0572 17.6226 40.0505 17.9978 40.1572 18.3477H40.1582C40.2574 18.7292 40.4874 19.0628 40.8057 19.2939V19.2949L43.4658 21.2949L43.4736 21.3018L43.4814 21.3076C43.833 21.561 44.1178 21.8956 44.3115 22.2832L44.3203 22.3008L44.3301 22.3174C44.5193 22.6618 44.6323 23.0398 44.665 23.4297C44.6645 23.8534 44.562 24.271 44.3633 24.6455L44.3574 24.6562L44.3516 24.668C44.1547 25.0634 43.8666 25.4069 43.5117 25.6699H43.5107L43.5059 25.6748L40.8457 27.6748C40.552 27.888 40.3356 28.1893 40.2256 28.5342C40.0895 28.907 40.0874 29.3151 40.2178 29.6895V29.6904L41.2979 32.9307C41.4428 33.3669 41.4778 33.832 41.4004 34.2852C41.3238 34.7294 41.1423 35.1493 40.8701 35.5088C40.6005 35.8648 40.2497 36.1506 39.8477 36.3447C39.4317 36.5267 38.9802 36.6128 38.5264 36.5947L38.5059 36.5938H35.626C35.2302 36.5812 34.8415 36.6994 34.5195 36.9307V36.9297C34.1849 37.1599 33.9476 37.5038 33.8467 37.8955H33.8457L32.9658 40.9355L32.9639 40.9443C32.841 41.3833 32.6101 41.7848 32.293 42.1123C31.9757 42.4398 31.5815 42.6836 31.1465 42.8203L31.1426 42.8213C30.8662 42.9095 30.5772 42.9544 30.2871 42.9541H30.2432L30.1982 42.958C30.0435 42.9716 29.8891 42.9705 29.7344 42.959C29.3057 42.8784 28.9041 42.6901 28.5703 42.4092L28.5596 42.4004L28.5498 42.3916L26.2939 40.5957H26.2949C26.0178 40.372 25.6807 40.2372 25.3281 40.207L25.1768 40.2012C24.8207 40.2012 24.4739 40.3079 24.1807 40.5059L24.0654 40.5898L21.7656 42.4102L21.7637 42.4111C21.2218 42.8423 20.5386 43.0559 19.8477 43.0098C19.1588 42.9637 18.5115 42.6628 18.0322 42.166C17.716 41.8288 17.4822 41.423 17.3486 40.9805L16.4883 37.96H16.4863C16.3909 37.5855 16.1711 37.2556 15.8604 37.0254H15.8613C15.8519 37.0181 15.8416 37.012 15.832 37.0049C15.8256 37.0003 15.82 36.9947 15.8135 36.9902H15.8125C15.5029 36.7654 15.129 36.6481 14.7461 36.6553V36.6543H11.7422L11.7188 36.6553C11.296 36.6755 10.8761 36.5917 10.4961 36.4111L10.4854 36.4062L10.334 36.3301C9.9872 36.1427 9.68519 35.8805 9.45312 35.5635L9.44531 35.5518L9.43652 35.541C9.19901 35.2344 9.03102 34.882 8.94434 34.5098L8.91309 34.3486C8.84497 33.8956 8.88107 33.4329 9.01953 32.9961L10.1143 29.7539L10.1162 29.7471L10.1182 29.7393C10.2325 29.3829 10.2342 29 10.123 28.6426C10.0118 28.2852 9.79345 27.9708 9.49707 27.7422L9.4873 27.7344L6.82715 25.7344L6.82324 25.7314L6.69043 25.627C6.38921 25.3755 6.13996 25.067 5.95703 24.7188C5.76625 24.328 5.66699 23.8988 5.66699 23.4639C5.667 23.0286 5.76597 22.599 5.95703 22.208C6.14069 21.8592 6.38982 21.5518 6.69043 21.3008L6.82324 21.1963L6.82715 21.1934L9.4873 19.1934L9.49707 19.1855C9.79346 18.9569 10.0118 18.6426 10.123 18.2852C10.2316 17.9364 10.2313 17.5639 10.125 17.2148H10.127L9.14648 13.8369L9.14355 13.8262L9.13965 13.8145C9.00804 13.3975 8.97841 12.9545 9.05176 12.5244C9.12753 12.0799 9.31026 11.6598 9.58301 11.3008L9.58887 11.292C9.85451 10.9342 10.2085 10.6508 10.6152 10.4688L10.624 10.4648L10.6328 10.46C11.042 10.2669 11.4923 10.1765 11.9443 10.1953L11.9658 10.1963H14.8203C15.2178 10.2158 15.6118 10.1049 15.9395 9.87598L15.9434 9.87305C16.2802 9.63526 16.5207 9.28632 16.627 8.88867L16.6279 8.88965L17.4756 5.91211C17.6396 5.47046 17.8988 5.07006 18.2354 4.74023C18.5544 4.45286 18.9355 4.24268 19.3486 4.12598C19.7717 4.02702 20.212 4.02828 20.6348 4.12891L20.6504 4.13281L20.666 4.13574C21.0944 4.22335 21.4954 4.41376 21.834 4.69043L21.8438 4.69824L24.1035 6.49805L24.1543 6.53906L24.21 6.57227C24.5255 6.76234 24.8941 6.84543 25.2607 6.81055C25.6224 6.78857 25.9666 6.65218 26.2451 6.41992L26.2461 6.4209L28.5264 4.62109L28.5322 4.61621L28.5371 4.61133C28.8885 4.32545 29.3042 4.12908 29.748 4.03906Z" fill="url(#paint0_linear_2084_5648)" fill-opacity="0.1" stroke="url(#paint1_linear_2084_5648)" stroke-width="2"/>
<defs>
<linearGradient id="paint0_linear_2084_5648" x1="25.1668" y1="44.0159" x2="25.1668" y2="-2.42858" gradientUnits="userSpaceOnUse">
<stop stop-color="#B168FF"/>
<stop offset="1" stop-color="#8049F3"/>
</linearGradient>
<linearGradient id="paint1_linear_2084_5648" x1="25.1668" y1="44.0159" x2="25.1668" y2="-2.42858" gradientUnits="userSpaceOnUse">
<stop stop-color="#B168FF"/>
<stop offset="1" stop-color="#8049F3"/>
</linearGradient>
</defs>
</svg>
