<svg width="17" height="17" viewBox="0 0 17 17" fill="none" xmlns="http://www.w3.org/2000/svg">
<path d="M3.21225 16.2405C3.52134 16.4818 3.91336 16.3989 4.38077 16.0596L8.36879 13.127L12.3644 16.0596C12.8318 16.3989 13.2162 16.4818 13.5329 16.2405C13.842 16.0068 13.9098 15.6224 13.7213 15.072L12.1457 10.3829L16.1715 7.488C16.6389 7.15629 16.8273 6.8095 16.7067 6.43256C16.5861 6.0707 16.2318 5.88977 15.6513 5.89731L10.7134 5.92746L9.21314 1.21571C9.03221 0.657842 8.76081 0.378906 8.36879 0.378906C7.98431 0.378906 7.71292 0.657842 7.53199 1.21571L6.03176 5.92746L1.09385 5.89731C0.513363 5.88977 0.159039 6.0707 0.0384186 6.43256C-0.089741 6.8095 0.106268 7.15629 0.573673 7.488L4.59939 10.3829L3.02378 15.072C2.83531 15.6224 2.90316 16.0068 3.21225 16.2405Z" fill="#FFA600"/>
</svg>
