<svg width="121" height="122" viewBox="0 0 121 122" fill="none" xmlns="http://www.w3.org/2000/svg">
<g filter="url(#filter0_d_2240_9510)">
<path d="M66.214 41.0313C64.2908 41.0295 62.4891 41.5146 60.5 42.3724C58.5109 41.5146 56.7092 41.0295 54.786 41.0313C52.6387 41.0332 50.5235 41.6427 48.0212 42.6861C47.346 42.9676 46.9062 43.6275 46.9062 44.359V59.1563C46.9062 59.7397 47.1871 60.2874 47.6609 60.628C48.1346 60.9686 48.7433 61.0602 49.2964 60.8742C51.5782 60.1071 53.21 59.7809 54.7329 59.7848C56.2499 59.7886 57.7918 60.1203 59.8952 60.8649C60.2865 61.0034 60.7135 61.0034 61.1048 60.8649C63.2082 60.1203 64.7501 59.7886 66.2671 59.7848C67.79 59.7809 69.4218 60.1071 71.7036 60.8742C72.2567 61.0602 72.8654 60.9686 73.3391 60.628C73.8129 60.2874 74.0938 59.7397 74.0938 59.1563V44.359C74.0938 43.6275 73.654 42.9676 72.9788 42.6861C70.4765 41.6427 68.3613 41.0332 66.214 41.0313Z" fill="url(#paint0_linear_2240_9510)"/>
<path fill-rule="evenodd" clip-rule="evenodd" d="M33.3125 51C33.3125 35.9848 45.4848 23.8125 60.5 23.8125C75.5152 23.8125 87.6875 35.9848 87.6875 51C87.6875 66.0152 75.5152 78.1875 60.5 78.1875C45.4848 78.1875 33.3125 66.0152 33.3125 51ZM37.0062 49.1875H40.5625C41.5635 49.1875 42.375 49.999 42.375 51C42.375 52.001 41.5635 52.8125 40.5625 52.8125H37.0062C37.9317 64.9788 48.0966 74.5625 60.5 74.5625C66.3542 74.5625 71.7098 72.4276 75.8305 68.8938L73.3161 66.3794C72.6083 65.6716 72.6083 64.524 73.3161 63.8161C74.024 63.1083 75.1716 63.1083 75.8794 63.8161L78.3938 66.3305C81.5594 62.639 83.6025 57.9566 83.9938 52.8125H80.4375C79.4365 52.8125 78.625 52.001 78.625 51C78.625 49.999 79.4365 49.1875 80.4375 49.1875H83.9938C83.6025 44.0434 81.5594 39.361 78.3938 35.6695L75.8794 38.1839C75.1716 38.8917 74.024 38.8917 73.3161 38.1839C72.6083 37.476 72.6083 36.3284 73.3161 35.6206L75.8305 33.1062C72.139 29.9406 67.4566 27.8975 62.3125 27.5062V31.0625C62.3125 32.0635 61.501 32.875 60.5 32.875C59.499 32.875 58.6875 32.0635 58.6875 31.0625V27.5062C53.5434 27.8975 48.861 29.9406 45.1695 33.1062L47.6838 35.6206C48.3917 36.3284 48.3917 37.476 47.6838 38.1838C46.976 38.8917 45.8284 38.8917 45.1206 38.1838L42.6062 35.6695C39.4406 39.361 37.3975 44.0434 37.0062 49.1875Z" fill="url(#paint1_linear_2240_9510)"/>
</g>
<defs>
<filter id="filter0_d_2240_9510" x="-1.5" y="-1" width="124" height="124" filterUnits="userSpaceOnUse" color-interpolation-filters="sRGB">
<feFlood flood-opacity="0" result="BackgroundImageFix"/>
<feColorMatrix in="SourceAlpha" type="matrix" values="0 0 0 0 0 0 0 0 0 0 0 0 0 0 0 0 0 0 127 0" result="hardAlpha"/>
<feOffset dy="10"/>
<feGaussianBlur stdDeviation="16.5"/>
<feColorMatrix type="matrix" values="0 0 0 0 0.226534 0 0 0 0 0 0 0 0 0 0.468691 0 0 0 1 0"/>
<feBlend mode="normal" in2="BackgroundImageFix" result="effect1_dropShadow_2240_9510"/>
<feBlend mode="normal" in="SourceGraphic" in2="effect1_dropShadow_2240_9510" result="shape"/>
</filter>
<linearGradient id="paint0_linear_2240_9510" x1="60.5" y1="60.9688" x2="60.5" y2="38.3925" gradientUnits="userSpaceOnUse">
<stop stop-color="#B168FF"/>
<stop offset="1" stop-color="#8049F3" stop-opacity="0.4"/>
</linearGradient>
<linearGradient id="paint1_linear_2240_9510" x1="60.5" y1="78.1875" x2="60.5" y2="16.6158" gradientUnits="userSpaceOnUse">
<stop stop-color="#B168FF"/>
<stop offset="1" stop-color="#8049F3" stop-opacity="0.4"/>
</linearGradient>
</defs>
</svg>
