<svg width="116" height="110" viewBox="0 0 116 110" fill="none" xmlns="http://www.w3.org/2000/svg">
<g filter="url(#filter0_d_2240_9503)">
<path d="M33.832 30.5C33.832 26.4959 37.078 23.25 41.082 23.25H70.082C73.644 23.25 76.6058 25.8185 77.2165 29.2044C74.2073 26.981 70.4856 25.6667 66.457 25.6667C56.447 25.6667 48.332 33.7815 48.332 43.7917C48.332 50.7468 52.2497 56.7873 57.9987 59.8263V61.9167H65.2487C66.5834 61.9167 67.6654 62.9986 67.6654 64.3333C67.6654 65.6681 66.5834 66.75 65.2487 66.75H45.9154C44.5807 66.75 43.4987 65.6681 43.4987 64.3333C43.4987 62.9986 44.5807 61.9167 45.9154 61.9167H53.1654V57.0833H41.082C37.078 57.0833 33.832 53.8375 33.832 49.8333V30.5Z" fill="url(#paint0_linear_2240_9503)"/>
<path fill-rule="evenodd" clip-rule="evenodd" d="M66.4583 28.0845C57.7827 28.0845 50.75 35.1173 50.75 43.7928C50.75 52.4684 57.7827 59.5011 66.4583 59.5011C75.1339 59.5011 82.1667 52.4684 82.1667 43.7928C82.1667 35.1173 75.1339 28.0845 66.4583 28.0845ZM61.6617 35.6374C62.4302 35.2115 63.3691 35.2362 64.1142 35.7018L73.7808 41.7435C74.4875 42.185 74.9167 42.9595 74.9167 43.7928C74.9167 44.6261 74.4875 45.4006 73.7808 45.8421L64.1142 51.8838C63.3691 52.3495 62.4302 52.3741 61.6617 51.9481C60.8935 51.5223 60.4167 50.7129 60.4167 49.8345V37.7511C60.4167 36.8726 60.8935 36.0633 61.6617 35.6374Z" fill="url(#paint1_linear_2240_9503)"/>
</g>
<defs>
<filter id="filter0_d_2240_9503" x="-4" y="-7" width="124" height="124" filterUnits="userSpaceOnUse" color-interpolation-filters="sRGB">
<feFlood flood-opacity="0" result="BackgroundImageFix"/>
<feColorMatrix in="SourceAlpha" type="matrix" values="0 0 0 0 0 0 0 0 0 0 0 0 0 0 0 0 0 0 127 0" result="hardAlpha"/>
<feOffset dy="10"/>
<feGaussianBlur stdDeviation="16.5"/>
<feColorMatrix type="matrix" values="0 0 0 0 0.226534 0 0 0 0 0 0 0 0 0 0.468691 0 0 0 1 0"/>
<feBlend mode="normal" in2="BackgroundImageFix" result="effect1_dropShadow_2240_9503"/>
<feBlend mode="normal" in="SourceGraphic" in2="effect1_dropShadow_2240_9503" result="shape"/>
</filter>
<linearGradient id="paint0_linear_2240_9503" x1="55.5243" y1="66.75" x2="55.5243" y2="17.4926" gradientUnits="userSpaceOnUse">
<stop stop-color="#B168FF"/>
<stop offset="1" stop-color="#8049F3" stop-opacity="0.4"/>
</linearGradient>
<linearGradient id="paint1_linear_2240_9503" x1="66.4583" y1="59.5011" x2="66.4583" y2="23.9264" gradientUnits="userSpaceOnUse">
<stop stop-color="#B168FF"/>
<stop offset="1" stop-color="#8049F3" stop-opacity="0.4"/>
</linearGradient>
</defs>
</svg>
