<svg width="42" height="42" viewBox="0 0 42 42" fill="none" xmlns="http://www.w3.org/2000/svg">
<path d="M41.0404 19.3281C40.7743 18.7959 40.3832 18.3361 39.9004 17.9881L37.2404 15.9881C37.1021 15.8927 37.0027 15.7508 36.9604 15.5881C36.9007 15.4268 36.9007 15.2495 36.9604 15.0881L38.0604 11.8281C38.237 11.2451 38.278 10.6294 38.1804 10.0281C38.0889 9.41552 37.8409 8.83687 37.4604 8.34814C37.0944 7.85894 36.6136 7.46741 36.0604 7.20814C35.5312 6.95403 34.9466 6.83711 34.3604 6.86814H31.3604C31.183 6.86598 31.011 6.80634 30.8704 6.69815C30.7298 6.58996 30.628 6.43908 30.5804 6.26814L29.7204 3.26814C29.5529 2.66017 29.2367 2.10343 28.8004 1.64814C28.3637 1.20454 27.8296 0.868976 27.2404 0.668139C26.6448 0.485389 26.0147 0.444298 25.4004 0.548139C24.7917 0.668699 24.2218 0.936499 23.7404 1.32814L21.4604 3.12814C21.334 3.24204 21.1705 3.30603 21.0004 3.30814C20.8468 3.32281 20.6926 3.28776 20.5604 3.20814L18.3004 1.40814C17.8365 1.029 17.2874 0.768189 16.7004 0.648139C16.1218 0.510407 15.519 0.510407 14.9404 0.648139C14.3596 0.807153 13.8249 1.10192 13.3804 1.50814C12.9254 1.95094 12.5766 2.49114 12.3604 3.08814L11.5004 6.10814C11.4568 6.28619 11.3502 6.44245 11.2004 6.54814C11.043 6.65809 10.8514 6.70777 10.6604 6.68814H7.82041C7.2067 6.66251 6.59593 6.78604 6.04041 7.04814C5.47721 7.30017 4.98823 7.69273 4.62041 8.18814C4.25025 8.67543 4.00325 9.2449 3.90041 9.84814C3.80041 10.4341 3.84041 11.0381 4.02041 11.6081L5.00041 14.9861C5.05197 15.1467 5.05275 15.3193 5.00264 15.4804C4.95254 15.6414 4.85398 15.7831 4.72041 15.8861L2.06041 17.8861C1.57641 18.2461 1.18041 18.7101 0.900413 19.2461C0.637659 19.7779 0.500977 20.363 0.500977 20.9561C0.500977 21.5493 0.637659 22.1344 0.900413 22.6661C1.17954 23.2012 1.57611 23.6661 2.06041 24.0261L4.72041 26.0261C4.85398 26.1291 4.95254 26.2708 5.00264 26.4319C5.05275 26.5929 5.05197 26.7655 5.00041 26.9261L3.90041 30.1861C3.7141 30.7739 3.66618 31.3968 3.76041 32.0061C3.86041 32.6021 4.10841 33.1661 4.48041 33.6461C4.84641 34.1461 5.33641 34.5461 5.90041 34.8061C6.43041 35.0581 7.01441 35.1741 7.60041 35.1461H10.5804C10.7608 35.1384 10.938 35.1951 11.0804 35.3061C11.2242 35.405 11.3244 35.5554 11.3604 35.7261L12.2204 38.7461C12.3982 39.3439 12.7132 39.8918 13.1404 40.3461C13.7927 41.0254 14.675 41.4368 15.6146 41.4997C16.5542 41.5626 17.4835 41.2724 18.2204 40.6861L20.5204 38.8661C20.6592 38.7541 20.8321 38.693 21.0104 38.693C21.1887 38.693 21.3617 38.7541 21.5004 38.8661L23.7604 40.6661C24.2404 41.0701 24.8204 41.3401 25.4404 41.4461C25.6671 41.4661 25.8937 41.4661 26.1204 41.4461C26.5141 41.4466 26.9054 41.3859 27.2804 41.2661C27.8742 41.0795 28.4119 40.7476 28.845 40.3006C29.278 39.8535 29.5927 39.3055 29.7604 38.7061L30.6404 35.6661C30.6764 35.4954 30.7766 35.345 30.9204 35.2461C31.0751 35.1291 31.267 35.0723 31.4604 35.0861H34.3204C34.9319 35.1105 35.5409 34.9941 36.1004 34.7461C36.652 34.483 37.1324 34.0914 37.5013 33.6042C37.8702 33.117 38.1168 32.5484 38.2204 31.9461C38.3256 31.3306 38.2776 30.6987 38.0804 30.1061L37.0004 26.8661C36.9407 26.7048 36.9407 26.5275 37.0004 26.3661C37.0427 26.2035 37.1421 26.0615 37.2804 25.9661L39.9404 23.9661C40.4224 23.6091 40.8131 23.1431 41.0804 22.6061C41.3614 22.0767 41.5058 21.4855 41.5004 20.8861C41.4615 20.339 41.3045 19.8088 41.0404 19.3281ZM30.1604 17.8061L21.3204 26.6461C20.9782 26.9813 20.5785 27.2523 20.1404 27.4461C19.6964 27.6261 19.2204 27.7221 18.7404 27.7261C18.251 27.7295 17.7666 27.6272 17.3204 27.4261C16.873 27.2385 16.4657 26.967 16.1204 26.6261L11.7604 22.2461C11.4328 21.8635 11.2615 21.3714 11.281 20.868C11.3004 20.3647 11.5091 19.8872 11.8653 19.531C12.2215 19.1748 12.699 18.9662 13.2023 18.9467C13.7057 18.9273 14.1978 19.0985 14.5804 19.4261L18.7404 23.5861L27.3404 14.9661C27.7151 14.5936 28.222 14.3846 28.7504 14.3846C29.2788 14.3846 29.7857 14.5936 30.1604 14.9661C30.3602 15.1532 30.5195 15.3793 30.6284 15.6305C30.7373 15.8816 30.7935 16.1524 30.7935 16.4261C30.7935 16.6999 30.7373 16.9707 30.6284 17.2218C30.5195 17.473 30.3602 17.6991 30.1604 17.8861V17.8061Z" fill="url(#paint0_linear_2084_5645)"/>
<defs>
<linearGradient id="paint0_linear_2084_5645" x1="21.0008" y1="41.5081" x2="21.0008" y2="-4.93639" gradientUnits="userSpaceOnUse">
<stop stop-color="#B168FF"/>
<stop offset="1" stop-color="#8049F3"/>
</linearGradient>
</defs>
</svg>
