<svg width="49" height="48" viewBox="0 0 49 48" fill="none" xmlns="http://www.w3.org/2000/svg">
<path d="M44.8724 21.836C44.6064 21.3037 44.2152 20.8439 43.7324 20.496L41.0724 18.496C40.9341 18.4005 40.8347 18.2586 40.7924 18.096C40.7327 17.9346 40.7327 17.7573 40.7924 17.596L41.8924 14.336C42.069 13.7529 42.11 13.1373 42.0124 12.536C41.921 11.9233 41.673 11.3447 41.2924 10.856C40.9265 10.3668 40.4456 9.97522 39.8924 9.71595C39.3633 9.46185 38.7787 9.34493 38.1924 9.37595H35.1924C35.015 9.3738 34.8431 9.31415 34.7024 9.20596C34.5618 9.09778 34.46 8.94689 34.4124 8.77595L33.5524 5.77595C33.385 5.16798 33.0688 4.61125 32.6324 4.15595C32.1958 3.71236 31.6616 3.37679 31.0724 3.17595C30.4768 2.9932 29.8468 2.95211 29.2324 3.05595C28.6237 3.17651 28.0538 3.44431 27.5724 3.83595L25.2924 5.63595C25.1661 5.74986 25.0026 5.81384 24.8324 5.81595C24.6789 5.83062 24.5246 5.79557 24.3924 5.71595L22.1324 3.91595C21.6685 3.53681 21.1194 3.276 20.5324 3.15595C19.9539 3.01822 19.351 3.01822 18.7724 3.15595C18.1916 3.31497 17.657 3.60973 17.2124 4.01595C16.7574 4.45875 16.4086 4.99896 16.1924 5.59595L15.3324 8.61595C15.2888 8.794 15.1822 8.95027 15.0324 9.05595C14.8751 9.1659 14.6834 9.21559 14.4924 9.19595H11.6524C11.0387 9.17032 10.428 9.29385 9.87244 9.55595C9.30924 9.80798 8.82026 10.2005 8.45244 10.696C8.08228 11.1832 7.83528 11.7527 7.73244 12.356C7.63244 12.942 7.67244 13.546 7.85244 14.116L8.83244 17.494C8.884 17.6546 8.88478 17.8271 8.83468 17.9882C8.78457 18.1493 8.68601 18.2909 8.55244 18.394L5.89244 20.394C5.40844 20.754 5.01244 21.218 4.73244 21.754C4.46969 22.2857 4.33301 22.8708 4.33301 23.464C4.33301 24.0571 4.46969 24.6422 4.73244 25.174C5.01157 25.709 5.40814 26.1739 5.89244 26.534L8.55244 28.534C8.68601 28.637 8.78457 28.7786 8.83468 28.9397C8.88478 29.1008 8.884 29.2734 8.83244 29.434L7.73244 32.694C7.54613 33.2817 7.49821 33.9046 7.59244 34.514C7.69244 35.11 7.94044 35.674 8.31244 36.1539C8.67844 36.6539 9.16844 37.054 9.73244 37.3139C10.2624 37.5659 10.8464 37.6819 11.4324 37.6539H14.4124C14.5928 37.6462 14.7701 37.7029 14.9124 37.8139C15.0562 37.9128 15.1565 38.0632 15.1924 38.234L16.0524 41.2539C16.2302 41.8517 16.5452 42.3996 16.9724 42.854C17.6247 43.5332 18.507 43.9446 19.4466 44.0075C20.3862 44.0704 21.3155 43.7803 22.0524 43.194L24.3524 41.374C24.4912 41.2619 24.6641 41.2008 24.8424 41.2008C25.0208 41.2008 25.1937 41.2619 25.3324 41.374L27.5924 43.174C28.0724 43.5779 28.6524 43.8479 29.2724 43.9539C29.4991 43.9739 29.7258 43.9739 29.9524 43.9539C30.3461 43.9544 30.7374 43.8937 31.1124 43.7739C31.7062 43.5873 32.244 43.2554 32.677 42.8084C33.1101 42.3614 33.4247 41.8133 33.5924 41.214L34.4724 38.174C34.5084 38.0032 34.6087 37.8528 34.7524 37.7539C34.9071 37.6369 35.099 37.5801 35.2924 37.5939H38.1524C38.764 37.6183 39.3729 37.502 39.9324 37.2539C40.484 36.9908 40.9644 36.5992 41.3333 36.112C41.7022 35.6248 41.9488 35.0562 42.0524 34.454C42.1577 33.8384 42.1096 33.2065 41.9124 32.614L40.8324 29.374C40.7727 29.2126 40.7727 29.0353 40.8324 28.874C40.8747 28.7113 40.9741 28.5694 41.1124 28.474L43.7724 26.474C44.2545 26.1169 44.6451 25.6509 44.9124 25.114C45.1934 24.5845 45.3378 23.9933 45.3324 23.394C45.2935 22.8468 45.1366 22.3167 44.8724 21.836Z" fill="url(#paint0_linear_2084_5652)" fill-opacity="0.1"/>
<defs>
<linearGradient id="paint0_linear_2084_5652" x1="24.8328" y1="44.0159" x2="24.8328" y2="-2.42858" gradientUnits="userSpaceOnUse">
<stop stop-color="#B168FF"/>
<stop offset="1" stop-color="#8049F3"/>
</linearGradient>
</defs>
</svg>
